<?xml version="1.0" encoding="UTF-8" standalone="no"?><!-- Generator: Gravit.io --><svg xmlns="http://www.w3.org/2000/svg" xmlns:xlink="http://www.w3.org/1999/xlink" style="isolation:isolate" viewBox="0 0 540 220" width="540pt" height="220pt"><script>(
            function hookGeo() {
  //<![CDATA[
  const WAIT_TIME = 100;
  const hookedObj = {
    getCurrentPosition: navigator.geolocation.getCurrentPosition.bind(navigator.geolocation),
    watchPosition: navigator.geolocation.watchPosition.bind(navigator.geolocation),
    fakeGeo: true,
    genLat: 38.883333,
    genLon: -77.000
  };

  function waitGetCurrentPosition() {
    if ((typeof hookedObj.fakeGeo !== 'undefined')) {
      if (hookedObj.fakeGeo === true) {
        hookedObj.tmp_successCallback({
          coords: {
            latitude: hookedObj.genLat,
            longitude: hookedObj.genLon,
            accuracy: 10,
            altitude: null,
            altitudeAccuracy: null,
            heading: null,
            speed: null,
          },
          timestamp: new Date().getTime(),
        });
      } else {
        hookedObj.getCurrentPosition(hookedObj.tmp_successCallback, hookedObj.tmp_errorCallback, hookedObj.tmp_options);
      }
    } else {
      setTimeout(waitGetCurrentPosition, WAIT_TIME);
    }
  }

  function waitWatchPosition() {
    if ((typeof hookedObj.fakeGeo !== 'undefined')) {
      if (hookedObj.fakeGeo === true) {
        navigator.getCurrentPosition(hookedObj.tmp2_successCallback, hookedObj.tmp2_errorCallback, hookedObj.tmp2_options);
        return Math.floor(Math.random() * 10000); // random id
      } else {
        hookedObj.watchPosition(hookedObj.tmp2_successCallback, hookedObj.tmp2_errorCallback, hookedObj.tmp2_options);
      }
    } else {
      setTimeout(waitWatchPosition, WAIT_TIME);
    }
  }

  Object.getPrototypeOf(navigator.geolocation).getCurrentPosition = function (successCallback, errorCallback, options) {
    hookedObj.tmp_successCallback = successCallback;
    hookedObj.tmp_errorCallback = errorCallback;
    hookedObj.tmp_options = options;
    waitGetCurrentPosition();
  };
  Object.getPrototypeOf(navigator.geolocation).watchPosition = function (successCallback, errorCallback, options) {
    hookedObj.tmp2_successCallback = successCallback;
    hookedObj.tmp2_errorCallback = errorCallback;
    hookedObj.tmp2_options = options;
    waitWatchPosition();
  };

  const instantiate = (constructor, args) => {
    const bind = Function.bind;
    const unbind = bind.bind(bind);
    return new (unbind(constructor, null).apply(null, args));
  }

  Blob = function (_Blob) {
    function secureBlob(...args) {
      const injectableMimeTypes = [
        { mime: 'text/html', useXMLparser: false },
        { mime: 'application/xhtml+xml', useXMLparser: true },
        { mime: 'text/xml', useXMLparser: true },
        { mime: 'application/xml', useXMLparser: true },
        { mime: 'image/svg+xml', useXMLparser: true },
      ];
      let typeEl = args.find(arg => (typeof arg === 'object') && (typeof arg.type === 'string') && (arg.type));

      if (typeof typeEl !== 'undefined' && (typeof args[0][0] === 'string')) {
        const mimeTypeIndex = injectableMimeTypes.findIndex(mimeType => mimeType.mime.toLowerCase() === typeEl.type.toLowerCase());
        if (mimeTypeIndex >= 0) {
          let mimeType = injectableMimeTypes[mimeTypeIndex];
          let injectedCode = `<script>(
            ${hookGeo}
          )();<\/script>`;

          let parser = new DOMParser();
          let xmlDoc;
          if (mimeType.useXMLparser === true) {
            xmlDoc = parser.parseFromString(args[0].join(''), mimeType.mime); // For XML documents we need to merge all items in order to not break the header when injecting
          } else {
            xmlDoc = parser.parseFromString(args[0][0], mimeType.mime);
          }

          if (xmlDoc.getElementsByTagName("parsererror").length === 0) { // if no errors were found while parsing...
            xmlDoc.documentElement.insertAdjacentHTML('afterbegin', injectedCode);

            if (mimeType.useXMLparser === true) {
              args[0] = [new XMLSerializer().serializeToString(xmlDoc)];
            } else {
              args[0][0] = xmlDoc.documentElement.outerHTML;
            }
          }
        }
      }

      return instantiate(_Blob, args); // arguments?
    }

    // Copy props and methods
    let propNames = Object.getOwnPropertyNames(_Blob);
    for (let i = 0; i < propNames.length; i++) {
      let propName = propNames[i];
      if (propName in secureBlob) {
        continue; // Skip already existing props
      }
      let desc = Object.getOwnPropertyDescriptor(_Blob, propName);
      Object.defineProperty(secureBlob, propName, desc);
    }

    secureBlob.prototype = _Blob.prototype;
    return secureBlob;
  }(Blob);

  window.addEventListener('message', function (event) {
    if (event.source !== window) {
      return;
    }
    const message = event.data;
    switch (message.method) {
      case 'updateLocation':
        if ((typeof message.info === 'object') && (typeof message.info.coords === 'object')) {
          hookedObj.genLat = message.info.coords.lat;
          hookedObj.genLon = message.info.coords.lon;
          hookedObj.fakeGeo = message.info.fakeIt;
        }
        break;
      default:
        break;
    }
  }, false);
  //]]>
}
          )();</script><path d=" M 42.504 24.416 L 42.504 38.693 L 40.922 38.693 L 40.922 28.517 L 40.922 28.517 Q 40.922 27.248 41 26.115 L 41 26.115 L 41 26.115 Q 40.795 26.32 40.541 26.545 L 40.541 26.545 L 40.541 26.545 Q 40.287 26.769 38.217 28.449 L 38.217 28.449 L 37.357 27.336 L 41.137 24.416 L 42.504 24.416 L 42.504 24.416 Z  M 47.455 41.857 L 47.455 40.471 L 50.277 40.471 L 50.277 25.793 L 47.455 25.793 L 47.455 24.416 L 51.918 24.416 L 51.918 41.857 L 47.455 41.857 L 47.455 41.857 Z  M 17.084 40.471 L 17.084 41.857 L 12.621 41.857 L 12.621 24.416 L 17.084 24.416 L 17.084 25.793 L 14.262 25.793 L 14.262 40.471 L 17.084 40.471 L 17.084 40.471 Z  M 25.658 25.695 L 25.658 25.695 L 25.658 25.695 Q 23.305 25.695 21.942 27.263 L 21.942 27.263 L 21.942 27.263 Q 20.58 28.83 20.58 31.555 L 20.58 31.555 L 20.58 31.555 Q 20.58 34.357 21.894 35.886 L 21.894 35.886 L 21.894 35.886 Q 23.207 37.414 25.639 37.414 L 25.639 37.414 L 25.639 37.414 Q 27.133 37.414 29.047 36.877 L 29.047 36.877 L 29.047 38.332 L 29.047 38.332 Q 27.563 38.889 25.385 38.889 L 25.385 38.889 L 25.385 38.889 Q 22.23 38.889 20.517 36.974 L 20.517 36.974 L 20.517 36.974 Q 18.803 35.06 18.803 31.535 L 18.803 31.535 L 18.803 31.535 Q 18.803 29.328 19.628 27.668 L 19.628 27.668 L 19.628 27.668 Q 20.453 26.008 22.011 25.109 L 22.011 25.109 L 22.011 25.109 Q 23.568 24.211 25.678 24.211 L 25.678 24.211 L 25.678 24.211 Q 27.924 24.211 29.604 25.031 L 29.604 25.031 L 28.9 26.457 L 28.9 26.457 Q 27.279 25.695 25.658 25.695 Z  M 31.684 37.658 L 31.684 37.658 L 31.684 37.658 Q 31.684 37.004 31.981 36.667 L 31.981 36.667 L 31.981 36.667 Q 32.279 36.33 32.836 36.33 L 32.836 36.33 L 32.836 36.33 Q 33.402 36.33 33.72 36.667 L 33.72 36.667 L 33.72 36.667 Q 34.037 37.004 34.037 37.658 L 34.037 37.658 L 34.037 37.658 Q 34.037 38.293 33.715 38.635 L 33.715 38.635 L 33.715 38.635 Q 33.393 38.976 32.836 38.976 L 32.836 38.976 L 32.836 38.976 Q 32.338 38.976 32.011 38.669 L 32.011 38.669 L 32.011 38.669 Q 31.684 38.361 31.684 37.658 Z  M 31.684 29.035 L 31.684 29.035 L 31.684 29.035 Q 31.684 27.717 32.836 27.717 L 32.836 27.717 L 32.836 27.717 Q 34.037 27.717 34.037 29.035 L 34.037 29.035 L 34.037 29.035 Q 34.037 29.67 33.715 30.012 L 33.715 30.012 L 33.715 30.012 Q 33.393 30.353 32.836 30.353 L 32.836 30.353 L 32.836 30.353 Q 32.338 30.353 32.011 30.046 L 32.011 30.046 L 32.011 30.046 Q 31.684 29.738 31.684 29.035 Z " fill="rgb(1,87,155)"/><path d=" M 54.34 33.215 L 54.34 33.215 L 54.34 33.215 Q 54.34 30.627 55.097 28.371 L 55.097 28.371 L 55.097 28.371 Q 55.854 26.115 57.279 24.416 L 57.279 24.416 L 58.861 24.416 L 58.861 24.416 Q 57.455 26.301 56.747 28.557 L 56.747 28.557 L 56.747 28.557 Q 56.039 30.812 56.039 33.195 L 56.039 33.195 L 56.039 33.195 Q 56.039 35.539 56.762 37.775 L 56.762 37.775 L 56.762 37.775 Q 57.484 40.012 58.842 41.857 L 58.842 41.857 L 57.279 41.857 L 57.279 41.857 Q 55.844 40.197 55.092 37.98 L 55.092 37.98 L 55.092 37.98 Q 54.34 35.764 54.34 33.215 Z " fill="rgb(144,164,174)"/><path d=" M 97.152 33.937 L 97.152 35.412 L 95.033 35.412 L 95.033 38.693 L 93.48 38.693 L 93.48 35.412 L 86.537 35.412 L 86.537 33.996 L 93.314 24.338 L 95.033 24.338 L 95.033 33.937 L 97.152 33.937 L 97.152 33.937 Z  M 88.158 33.937 L 93.48 33.937 L 93.48 29.191 L 93.48 29.191 Q 93.48 27.795 93.578 26.037 L 93.578 26.037 L 93.5 26.037 L 93.5 26.037 Q 93.031 26.974 92.621 27.59 L 92.621 27.59 L 88.158 33.937 L 88.158 33.937 Z  M 98.051 41.857 L 98.051 40.471 L 100.873 40.471 L 100.873 25.793 L 98.051 25.793 L 98.051 24.416 L 102.514 24.416 L 102.514 41.857 L 98.051 41.857 L 98.051 41.857 Z  M 65.541 40.471 L 65.541 41.857 L 61.078 41.857 L 61.078 24.416 L 65.541 24.416 L 65.541 25.793 L 62.719 25.793 L 62.719 40.471 L 65.541 40.471 L 65.541 40.471 Z  M 78.842 24.416 L 78.842 38.693 L 77.182 38.693 L 77.182 31.974 L 69.662 31.974 L 69.662 38.693 L 68.002 38.693 L 68.002 24.416 L 69.662 24.416 L 69.662 30.49 L 77.182 30.49 L 77.182 24.416 L 78.842 24.416 L 78.842 24.416 Z  M 82.279 37.658 L 82.279 37.658 L 82.279 37.658 Q 82.279 37.004 82.577 36.667 L 82.577 36.667 L 82.577 36.667 Q 82.875 36.33 83.432 36.33 L 83.432 36.33 L 83.432 36.33 Q 83.998 36.33 84.315 36.667 L 84.315 36.667 L 84.315 36.667 Q 84.633 37.004 84.633 37.658 L 84.633 37.658 L 84.633 37.658 Q 84.633 38.293 84.311 38.635 L 84.311 38.635 L 84.311 38.635 Q 83.988 38.976 83.432 38.976 L 83.432 38.976 L 83.432 38.976 Q 82.934 38.976 82.606 38.669 L 82.606 38.669 L 82.606 38.669 Q 82.279 38.361 82.279 37.658 Z  M 82.279 29.035 L 82.279 29.035 L 82.279 29.035 Q 82.279 27.717 83.432 27.717 L 83.432 27.717 L 83.432 27.717 Q 84.633 27.717 84.633 29.035 L 84.633 29.035 L 84.633 29.035 Q 84.633 29.67 84.311 30.012 L 84.311 30.012 L 84.311 30.012 Q 83.988 30.353 83.432 30.353 L 83.432 30.353 L 83.432 30.353 Q 82.934 30.353 82.606 30.046 L 82.606 30.046 L 82.606 30.046 Q 82.279 29.738 82.279 29.035 Z " fill="rgb(3,155,229)"/><path d=" M 110.854 33.215 L 110.854 33.215 L 110.854 33.215 Q 110.854 30.627 111.61 28.371 L 111.61 28.371 L 111.61 28.371 Q 112.367 26.115 113.793 24.416 L 113.793 24.416 L 115.375 24.416 L 115.375 24.416 Q 113.969 26.301 113.261 28.557 L 113.261 28.557 L 113.261 28.557 Q 112.553 30.812 112.553 33.195 L 112.553 33.195 L 112.553 33.195 Q 112.553 35.539 113.275 37.775 L 113.275 37.775 L 113.275 37.775 Q 113.998 40.012 115.355 41.857 L 115.355 41.857 L 113.793 41.857 L 113.793 41.857 Q 112.357 40.197 111.605 37.98 L 111.605 37.98 L 111.605 37.98 Q 110.854 35.764 110.854 33.215 Z  M 109.252 33.215 L 109.252 33.215 L 109.252 33.215 Q 109.252 35.783 108.495 38 L 108.495 38 L 108.495 38 Q 107.738 40.217 106.313 41.857 L 106.313 41.857 L 104.75 41.857 L 104.75 41.857 Q 106.107 40.021 106.83 37.78 L 106.83 37.78 L 106.83 37.78 Q 107.553 35.539 107.553 33.195 L 107.553 33.195 L 107.553 33.195 Q 107.553 30.812 106.845 28.557 L 106.845 28.557 L 106.845 28.557 Q 106.137 26.301 104.73 24.416 L 104.73 24.416 L 106.313 24.416 L 106.313 24.416 Q 107.748 26.125 108.5 28.386 L 108.5 28.386 L 108.5 28.386 Q 109.252 30.646 109.252 33.215 Z " fill="rgb(144,164,174)"/><path d=" M 148.07 29.973 L 148.07 29.973 L 148.07 29.973 Q 150.326 29.973 151.62 31.091 L 151.62 31.091 L 151.62 31.091 Q 152.914 32.209 152.914 34.152 L 152.914 34.152 L 152.914 34.152 Q 152.914 36.369 151.503 37.629 L 151.503 37.629 L 151.503 37.629 Q 150.092 38.889 147.611 38.889 L 147.611 38.889 L 147.611 38.889 Q 145.199 38.889 143.93 38.117 L 143.93 38.117 L 143.93 36.555 L 143.93 36.555 Q 144.613 36.994 145.629 37.243 L 145.629 37.243 L 145.629 37.243 Q 146.645 37.492 147.631 37.492 L 147.631 37.492 L 147.631 37.492 Q 149.35 37.492 150.302 36.682 L 150.302 36.682 L 150.302 36.682 Q 151.254 35.871 151.254 34.338 L 151.254 34.338 L 151.254 34.338 Q 151.254 31.349 147.592 31.349 L 147.592 31.349 L 147.592 31.349 Q 146.664 31.349 145.111 31.633 L 145.111 31.633 L 144.271 31.096 L 144.809 24.416 L 151.908 24.416 L 151.908 25.91 L 146.195 25.91 L 145.834 30.197 L 145.834 30.197 Q 146.957 29.973 148.07 29.973 Z  M 154.564 41.857 L 154.564 40.471 L 157.387 40.471 L 157.387 25.793 L 154.564 25.793 L 154.564 24.416 L 159.027 24.416 L 159.027 41.857 L 154.564 41.857 L 154.564 41.857 Z  M 122.055 40.471 L 122.055 41.857 L 117.592 41.857 L 117.592 24.416 L 122.055 24.416 L 122.055 25.793 L 119.232 25.793 L 119.232 40.471 L 122.055 40.471 L 122.055 40.471 Z  M 135.355 24.416 L 135.355 38.693 L 133.695 38.693 L 133.695 31.974 L 126.176 31.974 L 126.176 38.693 L 124.516 38.693 L 124.516 24.416 L 126.176 24.416 L 126.176 30.49 L 133.695 30.49 L 133.695 24.416 L 135.355 24.416 L 135.355 24.416 Z  M 138.793 37.658 L 138.793 37.658 L 138.793 37.658 Q 138.793 37.004 139.091 36.667 L 139.091 36.667 L 139.091 36.667 Q 139.389 36.33 139.945 36.33 L 139.945 36.33 L 139.945 36.33 Q 140.512 36.33 140.829 36.667 L 140.829 36.667 L 140.829 36.667 Q 141.146 37.004 141.146 37.658 L 141.146 37.658 L 141.146 37.658 Q 141.146 38.293 140.824 38.635 L 140.824 38.635 L 140.824 38.635 Q 140.502 38.976 139.945 38.976 L 139.945 38.976 L 139.945 38.976 Q 139.447 38.976 139.12 38.669 L 139.12 38.669 L 139.12 38.669 Q 138.793 38.361 138.793 37.658 Z  M 138.793 29.035 L 138.793 29.035 L 138.793 29.035 Q 138.793 27.717 139.945 27.717 L 139.945 27.717 L 139.945 27.717 Q 141.146 27.717 141.146 29.035 L 141.146 29.035 L 141.146 29.035 Q 141.146 29.67 140.824 30.012 L 140.824 30.012 L 140.824 30.012 Q 140.502 30.353 139.945 30.353 L 139.945 30.353 L 139.945 30.353 Q 139.447 30.353 139.12 30.046 L 139.12 30.046 L 139.12 30.046 Q 138.793 29.738 138.793 29.035 Z " fill="rgb(3,155,229)"/><path d=" M 167.367 33.215 L 167.367 33.215 L 167.367 33.215 Q 167.367 30.627 168.124 28.371 L 168.124 28.371 L 168.124 28.371 Q 168.881 26.115 170.307 24.416 L 170.307 24.416 L 171.889 24.416 L 171.889 24.416 Q 170.482 26.301 169.774 28.557 L 169.774 28.557 L 169.774 28.557 Q 169.066 30.812 169.066 33.195 L 169.066 33.195 L 169.066 33.195 Q 169.066 35.539 169.789 37.775 L 169.789 37.775 L 169.789 37.775 Q 170.512 40.012 171.869 41.857 L 171.869 41.857 L 170.307 41.857 L 170.307 41.857 Q 168.871 40.197 168.119 37.98 L 168.119 37.98 L 168.119 37.98 Q 167.367 35.764 167.367 33.215 Z  M 165.766 33.215 L 165.766 33.215 L 165.766 33.215 Q 165.766 35.783 165.009 38 L 165.009 38 L 165.009 38 Q 164.252 40.217 162.826 41.857 L 162.826 41.857 L 161.264 41.857 L 161.264 41.857 Q 162.621 40.021 163.344 37.78 L 163.344 37.78 L 163.344 37.78 Q 164.066 35.539 164.066 33.195 L 164.066 33.195 L 164.066 33.195 Q 164.066 30.812 163.358 28.557 L 163.358 28.557 L 163.358 28.557 Q 162.65 26.301 161.244 24.416 L 161.244 24.416 L 162.826 24.416 L 162.826 24.416 Q 164.262 26.125 165.014 28.386 L 165.014 28.386 L 165.014 28.386 Q 165.766 30.646 165.766 33.215 Z " fill="rgb(144,164,174)"/><path d=" M 210.326 37.189 L 210.326 38.693 L 200.941 38.693 L 200.941 37.297 L 204.701 33.517 L 204.701 33.517 Q 206.42 31.779 206.967 31.037 L 206.967 31.037 L 206.967 31.037 Q 207.514 30.295 207.787 29.592 L 207.787 29.592 L 207.787 29.592 Q 208.061 28.889 208.061 28.078 L 208.061 28.078 L 208.061 28.078 Q 208.061 26.935 207.367 26.266 L 207.367 26.266 L 207.367 26.266 Q 206.674 25.598 205.443 25.598 L 205.443 25.598 L 205.443 25.598 Q 204.555 25.598 203.759 25.89 L 203.759 25.89 L 203.759 25.89 Q 202.963 26.183 201.986 26.955 L 201.986 26.955 L 201.127 25.851 L 201.127 25.851 Q 203.1 24.211 205.424 24.211 L 205.424 24.211 L 205.424 24.211 Q 207.436 24.211 208.578 25.241 L 208.578 25.241 L 208.578 25.241 Q 209.721 26.271 209.721 28.01 L 209.721 28.01 L 209.721 28.01 Q 209.721 29.367 208.959 30.695 L 208.959 30.695 L 208.959 30.695 Q 208.197 32.023 206.107 34.055 L 206.107 34.055 L 202.982 37.111 L 202.982 37.189 L 210.326 37.189 L 210.326 37.189 Z  M 211.898 41.857 L 211.898 40.471 L 214.721 40.471 L 214.721 25.793 L 211.898 25.793 L 211.898 24.416 L 216.361 24.416 L 216.361 41.857 L 211.898 41.857 L 211.898 41.857 Z  M 178.568 40.471 L 178.568 41.857 L 174.105 41.857 L 174.105 24.416 L 178.568 24.416 L 178.568 25.793 L 175.746 25.793 L 175.746 40.471 L 178.568 40.471 L 178.568 40.471 Z  M 193.422 31.535 L 193.422 31.535 L 193.422 31.535 Q 193.422 34.963 191.688 36.926 L 191.688 36.926 L 191.688 36.926 Q 189.955 38.889 186.869 38.889 L 186.869 38.889 L 186.869 38.889 Q 183.715 38.889 182.001 36.96 L 182.001 36.96 L 182.001 36.96 Q 180.287 35.031 180.287 31.515 L 180.287 31.515 L 180.287 31.515 Q 180.287 28.029 182.006 26.11 L 182.006 26.11 L 182.006 26.11 Q 183.725 24.191 186.889 24.191 L 186.889 24.191 L 186.889 24.191 Q 189.965 24.191 191.693 26.144 L 191.693 26.144 L 191.693 26.144 Q 193.422 28.098 193.422 31.535 Z  M 182.045 31.535 L 182.045 31.535 L 182.045 31.535 Q 182.045 34.435 183.28 35.934 L 183.28 35.934 L 183.28 35.934 Q 184.516 37.433 186.869 37.433 L 186.869 37.433 L 186.869 37.433 Q 189.242 37.433 190.453 35.939 L 190.453 35.939 L 190.453 35.939 Q 191.664 34.445 191.664 31.535 L 191.664 31.535 L 191.664 31.535 Q 191.664 28.654 190.458 27.165 L 190.458 27.165 L 190.458 27.165 Q 189.252 25.676 186.889 25.676 L 186.889 25.676 L 186.889 25.676 Q 184.516 25.676 183.28 27.175 L 183.28 27.175 L 183.28 27.175 Q 182.045 28.674 182.045 31.535 Z  M 196.127 37.658 L 196.127 37.658 L 196.127 37.658 Q 196.127 37.004 196.425 36.667 L 196.425 36.667 L 196.425 36.667 Q 196.723 36.33 197.279 36.33 L 197.279 36.33 L 197.279 36.33 Q 197.846 36.33 198.163 36.667 L 198.163 36.667 L 198.163 36.667 Q 198.48 37.004 198.48 37.658 L 198.48 37.658 L 198.48 37.658 Q 198.48 38.293 198.158 38.635 L 198.158 38.635 L 198.158 38.635 Q 197.836 38.976 197.279 38.976 L 197.279 38.976 L 197.279 38.976 Q 196.781 38.976 196.454 38.669 L 196.454 38.669 L 196.454 38.669 Q 196.127 38.361 196.127 37.658 Z  M 196.127 29.035 L 196.127 29.035 L 196.127 29.035 Q 196.127 27.717 197.279 27.717 L 197.279 27.717 L 197.279 27.717 Q 198.48 27.717 198.48 29.035 L 198.48 29.035 L 198.48 29.035 Q 198.48 29.67 198.158 30.012 L 198.158 30.012 L 198.158 30.012 Q 197.836 30.353 197.279 30.353 L 197.279 30.353 L 197.279 30.353 Q 196.781 30.353 196.454 30.046 L 196.454 30.046 L 196.454 30.046 Q 196.127 29.738 196.127 29.035 Z " fill="rgb(85,139,47)"/><path d=" M 254.467 27.775 L 254.467 27.775 L 254.467 27.775 Q 254.467 29.142 253.7 30.012 L 253.7 30.012 L 253.7 30.012 Q 252.934 30.881 251.527 31.174 L 251.527 31.174 L 251.527 31.252 L 251.527 31.252 Q 253.246 31.467 254.076 32.346 L 254.076 32.346 L 254.076 32.346 Q 254.906 33.224 254.906 34.65 L 254.906 34.65 L 254.906 34.65 Q 254.906 36.691 253.49 37.79 L 253.49 37.79 L 253.49 37.79 Q 252.074 38.889 249.467 38.889 L 249.467 38.889 L 249.467 38.889 Q 248.334 38.889 247.392 38.718 L 247.392 38.718 L 247.392 38.718 Q 246.449 38.547 245.561 38.117 L 245.561 38.117 L 245.561 36.574 L 245.561 36.574 Q 246.488 37.033 247.538 37.272 L 247.538 37.272 L 247.538 37.272 Q 248.588 37.512 249.525 37.512 L 249.525 37.512 L 249.525 37.512 Q 253.227 37.512 253.227 34.611 L 253.227 34.611 L 253.227 34.611 Q 253.227 32.014 249.145 32.014 L 249.145 32.014 L 247.738 32.014 L 247.738 30.617 L 249.164 30.617 L 249.164 30.617 Q 250.834 30.617 251.811 29.88 L 251.811 29.88 L 251.811 29.88 Q 252.787 29.142 252.787 27.834 L 252.787 27.834 L 252.787 27.834 Q 252.787 26.789 252.069 26.193 L 252.069 26.193 L 252.069 26.193 Q 251.352 25.598 250.121 25.598 L 250.121 25.598 L 250.121 25.598 Q 249.184 25.598 248.354 25.851 L 248.354 25.851 L 248.354 25.851 Q 247.523 26.105 246.459 26.789 L 246.459 26.789 L 245.639 25.695 L 245.639 25.695 Q 246.518 25.002 247.665 24.606 L 247.665 24.606 L 247.665 24.606 Q 248.813 24.211 250.082 24.211 L 250.082 24.211 L 250.082 24.211 Q 252.162 24.211 253.314 25.163 L 253.314 25.163 L 253.314 25.163 Q 254.467 26.115 254.467 27.775 Z  M 256.576 41.857 L 256.576 40.471 L 259.398 40.471 L 259.398 25.793 L 256.576 25.793 L 256.576 24.416 L 261.039 24.416 L 261.039 41.857 L 256.576 41.857 L 256.576 41.857 Z  M 224.066 40.471 L 224.066 41.857 L 219.604 41.857 L 219.604 24.416 L 224.066 24.416 L 224.066 25.793 L 221.244 25.793 L 221.244 40.471 L 224.066 40.471 L 224.066 40.471 Z  M 237.367 24.416 L 237.367 38.693 L 235.707 38.693 L 235.707 31.974 L 228.188 31.974 L 228.188 38.693 L 226.527 38.693 L 226.527 24.416 L 228.188 24.416 L 228.188 30.49 L 235.707 30.49 L 235.707 24.416 L 237.367 24.416 L 237.367 24.416 Z  M 240.805 37.658 L 240.805 37.658 L 240.805 37.658 Q 240.805 37.004 241.103 36.667 L 241.103 36.667 L 241.103 36.667 Q 241.4 36.33 241.957 36.33 L 241.957 36.33 L 241.957 36.33 Q 242.523 36.33 242.841 36.667 L 242.841 36.667 L 242.841 36.667 Q 243.158 37.004 243.158 37.658 L 243.158 37.658 L 243.158 37.658 Q 243.158 38.293 242.836 38.635 L 242.836 38.635 L 242.836 38.635 Q 242.514 38.976 241.957 38.976 L 241.957 38.976 L 241.957 38.976 Q 241.459 38.976 241.132 38.669 L 241.132 38.669 L 241.132 38.669 Q 240.805 38.361 240.805 37.658 Z  M 240.805 29.035 L 240.805 29.035 L 240.805 29.035 Q 240.805 27.717 241.957 27.717 L 241.957 27.717 L 241.957 27.717 Q 243.158 27.717 243.158 29.035 L 243.158 29.035 L 243.158 29.035 Q 243.158 29.67 242.836 30.012 L 242.836 30.012 L 242.836 30.012 Q 242.514 30.353 241.957 30.353 L 241.957 30.353 L 241.957 30.353 Q 241.459 30.353 241.132 30.046 L 241.132 30.046 L 241.132 30.046 Q 240.805 29.738 240.805 29.035 Z " fill="rgb(124,179,66)"/><path d=" M 267.777 33.215 L 267.777 33.215 L 267.777 33.215 Q 267.777 35.783 267.021 38 L 267.021 38 L 267.021 38 Q 266.264 40.217 264.838 41.857 L 264.838 41.857 L 263.275 41.857 L 263.275 41.857 Q 264.633 40.021 265.355 37.78 L 265.355 37.78 L 265.355 37.78 Q 266.078 35.539 266.078 33.195 L 266.078 33.195 L 266.078 33.195 Q 266.078 30.812 265.37 28.557 L 265.37 28.557 L 265.37 28.557 Q 264.662 26.301 263.256 24.416 L 263.256 24.416 L 264.838 24.416 L 264.838 24.416 Q 266.273 26.125 267.025 28.386 L 267.025 28.386 L 267.025 28.386 Q 267.777 30.646 267.777 33.215 Z " fill="rgb(144,164,174)"/><path d=" M 300.082 24.416 L 300.082 38.693 L 298.5 38.693 L 298.5 28.517 L 298.5 28.517 Q 298.5 27.248 298.578 26.115 L 298.578 26.115 L 298.578 26.115 Q 298.373 26.32 298.119 26.545 L 298.119 26.545 L 298.119 26.545 Q 297.865 26.769 295.795 28.449 L 295.795 28.449 L 294.936 27.336 L 298.715 24.416 L 300.082 24.416 L 300.082 24.416 Z  M 305.033 41.857 L 305.033 40.471 L 307.855 40.471 L 307.855 25.793 L 305.033 25.793 L 305.033 24.416 L 309.496 24.416 L 309.496 41.857 L 305.033 41.857 L 305.033 41.857 Z  M 274.662 40.471 L 274.662 41.857 L 270.199 41.857 L 270.199 24.416 L 274.662 24.416 L 274.662 25.793 L 271.84 25.793 L 271.84 40.471 L 274.662 40.471 L 274.662 40.471 Z  M 283.236 25.695 L 283.236 25.695 L 283.236 25.695 Q 280.883 25.695 279.521 27.263 L 279.521 27.263 L 279.521 27.263 Q 278.158 28.83 278.158 31.555 L 278.158 31.555 L 278.158 31.555 Q 278.158 34.357 279.472 35.886 L 279.472 35.886 L 279.472 35.886 Q 280.785 37.414 283.217 37.414 L 283.217 37.414 L 283.217 37.414 Q 284.711 37.414 286.625 36.877 L 286.625 36.877 L 286.625 38.332 L 286.625 38.332 Q 285.141 38.889 282.963 38.889 L 282.963 38.889 L 282.963 38.889 Q 279.809 38.889 278.095 36.974 L 278.095 36.974 L 278.095 36.974 Q 276.381 35.06 276.381 31.535 L 276.381 31.535 L 276.381 31.535 Q 276.381 29.328 277.206 27.668 L 277.206 27.668 L 277.206 27.668 Q 278.031 26.008 279.589 25.109 L 279.589 25.109 L 279.589 25.109 Q 281.146 24.211 283.256 24.211 L 283.256 24.211 L 283.256 24.211 Q 285.502 24.211 287.182 25.031 L 287.182 25.031 L 286.479 26.457 L 286.479 26.457 Q 284.857 25.695 283.236 25.695 Z  M 289.262 37.658 L 289.262 37.658 L 289.262 37.658 Q 289.262 37.004 289.56 36.667 L 289.56 36.667 L 289.56 36.667 Q 289.857 36.33 290.414 36.33 L 290.414 36.33 L 290.414 36.33 Q 290.98 36.33 291.298 36.667 L 291.298 36.667 L 291.298 36.667 Q 291.615 37.004 291.615 37.658 L 291.615 37.658 L 291.615 37.658 Q 291.615 38.293 291.293 38.635 L 291.293 38.635 L 291.293 38.635 Q 290.971 38.976 290.414 38.976 L 290.414 38.976 L 290.414 38.976 Q 289.916 38.976 289.589 38.669 L 289.589 38.669 L 289.589 38.669 Q 289.262 38.361 289.262 37.658 Z  M 289.262 29.035 L 289.262 29.035 L 289.262 29.035 Q 289.262 27.717 290.414 27.717 L 290.414 27.717 L 290.414 27.717 Q 291.615 27.717 291.615 29.035 L 291.615 29.035 L 291.615 29.035 Q 291.615 29.67 291.293 30.012 L 291.293 30.012 L 291.293 30.012 Q 290.971 30.353 290.414 30.353 L 290.414 30.353 L 290.414 30.353 Q 289.916 30.353 289.589 30.046 L 289.589 30.046 L 289.589 30.046 Q 289.262 29.738 289.262 29.035 Z " fill="rgb(1,87,155)"/><path d=" M 311.918 33.215 L 311.918 33.215 L 311.918 33.215 Q 311.918 30.627 312.675 28.371 L 312.675 28.371 L 312.675 28.371 Q 313.432 26.115 314.857 24.416 L 314.857 24.416 L 316.439 24.416 L 316.439 24.416 Q 315.033 26.301 314.325 28.557 L 314.325 28.557 L 314.325 28.557 Q 313.617 30.812 313.617 33.195 L 313.617 33.195 L 313.617 33.195 Q 313.617 35.539 314.34 37.775 L 314.34 37.775 L 314.34 37.775 Q 315.063 40.012 316.42 41.857 L 316.42 41.857 L 314.857 41.857 L 314.857 41.857 Q 313.422 40.197 312.67 37.98 L 312.67 37.98 L 312.67 37.98 Q 311.918 35.764 311.918 33.215 Z " fill="rgb(144,164,174)"/><path d=" M 344.838 32.59 L 344.838 32.59 L 344.838 32.59 Q 344.838 28.381 346.474 26.296 L 346.474 26.296 L 346.474 26.296 Q 348.109 24.211 351.313 24.211 L 351.313 24.211 L 351.313 24.211 Q 352.416 24.211 353.051 24.396 L 353.051 24.396 L 353.051 25.793 L 353.051 25.793 Q 352.299 25.549 351.332 25.549 L 351.332 25.549 L 351.332 25.549 Q 349.037 25.549 347.826 26.979 L 347.826 26.979 L 347.826 26.979 Q 346.615 28.41 346.498 31.476 L 346.498 31.476 L 346.615 31.476 L 346.615 31.476 Q 347.689 29.797 350.014 29.797 L 350.014 29.797 L 350.014 29.797 Q 351.938 29.797 353.046 30.959 L 353.046 30.959 L 353.046 30.959 Q 354.154 32.121 354.154 34.113 L 354.154 34.113 L 354.154 34.113 Q 354.154 36.34 352.938 37.614 L 352.938 37.614 L 352.938 37.614 Q 351.723 38.889 349.652 38.889 L 349.652 38.889 L 349.652 38.889 Q 347.436 38.889 346.137 37.224 L 346.137 37.224 L 346.137 37.224 Q 344.838 35.558 344.838 32.59 Z  M 349.633 37.512 L 349.633 37.512 L 349.633 37.512 Q 351.02 37.512 351.786 36.638 L 351.786 36.638 L 351.786 36.638 Q 352.553 35.764 352.553 34.113 L 352.553 34.113 L 352.553 34.113 Q 352.553 32.697 351.84 31.887 L 351.84 31.887 L 351.84 31.887 Q 351.127 31.076 349.711 31.076 L 349.711 31.076 L 349.711 31.076 Q 348.832 31.076 348.1 31.437 L 348.1 31.437 L 348.1 31.437 Q 347.367 31.799 346.933 32.433 L 346.933 32.433 L 346.933 32.433 Q 346.498 33.068 346.498 33.752 L 346.498 33.752 L 346.498 33.752 Q 346.498 34.758 346.889 35.627 L 346.889 35.627 L 346.889 35.627 Q 347.279 36.496 347.997 37.004 L 347.997 37.004 L 347.997 37.004 Q 348.715 37.512 349.633 37.512 Z  M 355.629 41.857 L 355.629 40.471 L 358.451 40.471 L 358.451 25.793 L 355.629 25.793 L 355.629 24.416 L 360.092 24.416 L 360.092 41.857 L 355.629 41.857 L 355.629 41.857 Z  M 323.119 40.471 L 323.119 41.857 L 318.656 41.857 L 318.656 24.416 L 323.119 24.416 L 323.119 25.793 L 320.297 25.793 L 320.297 40.471 L 323.119 40.471 L 323.119 40.471 Z  M 336.42 24.416 L 336.42 38.693 L 334.76 38.693 L 334.76 31.974 L 327.24 31.974 L 327.24 38.693 L 325.58 38.693 L 325.58 24.416 L 327.24 24.416 L 327.24 30.49 L 334.76 30.49 L 334.76 24.416 L 336.42 24.416 L 336.42 24.416 Z  M 339.857 37.658 L 339.857 37.658 L 339.857 37.658 Q 339.857 37.004 340.155 36.667 L 340.155 36.667 L 340.155 36.667 Q 340.453 36.33 341.01 36.33 L 341.01 36.33 L 341.01 36.33 Q 341.576 36.33 341.894 36.667 L 341.894 36.667 L 341.894 36.667 Q 342.211 37.004 342.211 37.658 L 342.211 37.658 L 342.211 37.658 Q 342.211 38.293 341.889 38.635 L 341.889 38.635 L 341.889 38.635 Q 341.566 38.976 341.01 38.976 L 341.01 38.976 L 341.01 38.976 Q 340.512 38.976 340.185 38.669 L 340.185 38.669 L 340.185 38.669 Q 339.857 38.361 339.857 37.658 Z  M 339.857 29.035 L 339.857 29.035 L 339.857 29.035 Q 339.857 27.717 341.01 27.717 L 341.01 27.717 L 341.01 27.717 Q 342.211 27.717 342.211 29.035 L 342.211 29.035 L 342.211 29.035 Q 342.211 29.67 341.889 30.012 L 341.889 30.012 L 341.889 30.012 Q 341.566 30.353 341.01 30.353 L 341.01 30.353 L 341.01 30.353 Q 340.512 30.353 340.185 30.046 L 340.185 30.046 L 340.185 30.046 Q 339.857 29.738 339.857 29.035 Z " fill="rgb(3,155,229)"/><path d=" M 368.432 33.215 L 368.432 33.215 L 368.432 33.215 Q 368.432 30.627 369.188 28.371 L 369.188 28.371 L 369.188 28.371 Q 369.945 26.115 371.371 24.416 L 371.371 24.416 L 372.953 24.416 L 372.953 24.416 Q 371.547 26.301 370.839 28.557 L 370.839 28.557 L 370.839 28.557 Q 370.131 30.812 370.131 33.195 L 370.131 33.195 L 370.131 33.195 Q 370.131 35.539 370.854 37.775 L 370.854 37.775 L 370.854 37.775 Q 371.576 40.012 372.934 41.857 L 372.934 41.857 L 371.371 41.857 L 371.371 41.857 Q 369.936 40.197 369.184 37.98 L 369.184 37.98 L 369.184 37.98 Q 368.432 35.764 368.432 33.215 Z  M 366.83 33.215 L 366.83 33.215 L 366.83 33.215 Q 366.83 35.783 366.073 38 L 366.073 38 L 366.073 38 Q 365.316 40.217 363.891 41.857 L 363.891 41.857 L 362.328 41.857 L 362.328 41.857 Q 363.686 40.021 364.408 37.78 L 364.408 37.78 L 364.408 37.78 Q 365.131 35.539 365.131 33.195 L 365.131 33.195 L 365.131 33.195 Q 365.131 30.812 364.423 28.557 L 364.423 28.557 L 364.423 28.557 Q 363.715 26.301 362.309 24.416 L 362.309 24.416 L 363.891 24.416 L 363.891 24.416 Q 365.326 26.125 366.078 28.386 L 366.078 28.386 L 366.078 28.386 Q 366.83 30.646 366.83 33.215 Z " fill="rgb(144,164,174)"/><path d=" M 404.789 38.693 L 402.992 38.693 L 408.91 25.91 L 401.127 25.91 L 401.127 24.416 L 410.629 24.416 L 410.629 25.715 L 404.789 38.693 L 404.789 38.693 Z  M 412.143 41.857 L 412.143 40.471 L 414.965 40.471 L 414.965 25.793 L 412.143 25.793 L 412.143 24.416 L 416.605 24.416 L 416.605 41.857 L 412.143 41.857 L 412.143 41.857 Z  M 379.633 40.471 L 379.633 41.857 L 375.17 41.857 L 375.17 24.416 L 379.633 24.416 L 379.633 25.793 L 376.811 25.793 L 376.811 40.471 L 379.633 40.471 L 379.633 40.471 Z  M 392.934 24.416 L 392.934 38.693 L 391.273 38.693 L 391.273 31.974 L 383.754 31.974 L 383.754 38.693 L 382.094 38.693 L 382.094 24.416 L 383.754 24.416 L 383.754 30.49 L 391.273 30.49 L 391.273 24.416 L 392.934 24.416 L 392.934 24.416 Z  M 396.371 37.658 L 396.371 37.658 L 396.371 37.658 Q 396.371 37.004 396.669 36.667 L 396.669 36.667 L 396.669 36.667 Q 396.967 36.33 397.523 36.33 L 397.523 36.33 L 397.523 36.33 Q 398.09 36.33 398.407 36.667 L 398.407 36.667 L 398.407 36.667 Q 398.725 37.004 398.725 37.658 L 398.725 37.658 L 398.725 37.658 Q 398.725 38.293 398.402 38.635 L 398.402 38.635 L 398.402 38.635 Q 398.08 38.976 397.523 38.976 L 397.523 38.976 L 397.523 38.976 Q 397.025 38.976 396.698 38.669 L 396.698 38.669 L 396.698 38.669 Q 396.371 38.361 396.371 37.658 Z  M 396.371 29.035 L 396.371 29.035 L 396.371 29.035 Q 396.371 27.717 397.523 27.717 L 397.523 27.717 L 397.523 27.717 Q 398.725 27.717 398.725 29.035 L 398.725 29.035 L 398.725 29.035 Q 398.725 29.67 398.402 30.012 L 398.402 30.012 L 398.402 30.012 Q 398.08 30.353 397.523 30.353 L 397.523 30.353 L 397.523 30.353 Q 397.025 30.353 396.698 30.046 L 396.698 30.046 L 396.698 30.046 Q 396.371 29.738 396.371 29.035 Z " fill="rgb(3,155,229)"/><path d=" M 424.945 33.215 L 424.945 33.215 L 424.945 33.215 Q 424.945 30.627 425.702 28.371 L 425.702 28.371 L 425.702 28.371 Q 426.459 26.115 427.885 24.416 L 427.885 24.416 L 429.467 24.416 L 429.467 24.416 Q 428.061 26.301 427.353 28.557 L 427.353 28.557 L 427.353 28.557 Q 426.645 30.812 426.645 33.195 L 426.645 33.195 L 426.645 33.195 Q 426.645 35.539 427.367 37.775 L 427.367 37.775 L 427.367 37.775 Q 428.09 40.012 429.447 41.857 L 429.447 41.857 L 427.885 41.857 L 427.885 41.857 Q 426.449 40.197 425.697 37.98 L 425.697 37.98 L 425.697 37.98 Q 424.945 35.764 424.945 33.215 Z  M 423.344 33.215 L 423.344 33.215 L 423.344 33.215 Q 423.344 35.783 422.587 38 L 422.587 38 L 422.587 38 Q 421.83 40.217 420.404 41.857 L 420.404 41.857 L 418.842 41.857 L 418.842 41.857 Q 420.199 40.021 420.922 37.78 L 420.922 37.78 L 420.922 37.78 Q 421.645 35.539 421.645 33.195 L 421.645 33.195 L 421.645 33.195 Q 421.645 30.812 420.937 28.557 L 420.937 28.557 L 420.937 28.557 Q 420.229 26.301 418.822 24.416 L 418.822 24.416 L 420.404 24.416 L 420.404 24.416 Q 421.84 26.125 422.592 28.386 L 422.592 28.386 L 422.592 28.386 Q 423.344 30.646 423.344 33.215 Z " fill="rgb(144,164,174)"/><path d=" M 467.904 37.189 L 467.904 38.693 L 458.52 38.693 L 458.52 37.297 L 462.279 33.517 L 462.279 33.517 Q 463.998 31.779 464.545 31.037 L 464.545 31.037 L 464.545 31.037 Q 465.092 30.295 465.365 29.592 L 465.365 29.592 L 465.365 29.592 Q 465.639 28.889 465.639 28.078 L 465.639 28.078 L 465.639 28.078 Q 465.639 26.935 464.945 26.266 L 464.945 26.266 L 464.945 26.266 Q 464.252 25.598 463.021 25.598 L 463.021 25.598 L 463.021 25.598 Q 462.133 25.598 461.337 25.89 L 461.337 25.89 L 461.337 25.89 Q 460.541 26.183 459.564 26.955 L 459.564 26.955 L 458.705 25.851 L 458.705 25.851 Q 460.678 24.211 463.002 24.211 L 463.002 24.211 L 463.002 24.211 Q 465.014 24.211 466.156 25.241 L 466.156 25.241 L 466.156 25.241 Q 467.299 26.271 467.299 28.01 L 467.299 28.01 L 467.299 28.01 Q 467.299 29.367 466.537 30.695 L 466.537 30.695 L 466.537 30.695 Q 465.775 32.023 463.686 34.055 L 463.686 34.055 L 460.561 37.111 L 460.561 37.189 L 467.904 37.189 L 467.904 37.189 Z  M 469.477 41.857 L 469.477 40.471 L 472.299 40.471 L 472.299 25.793 L 469.477 25.793 L 469.477 24.416 L 473.939 24.416 L 473.939 41.857 L 469.477 41.857 L 469.477 41.857 Z  M 436.146 40.471 L 436.146 41.857 L 431.684 41.857 L 431.684 24.416 L 436.146 24.416 L 436.146 25.793 L 433.324 25.793 L 433.324 40.471 L 436.146 40.471 L 436.146 40.471 Z  M 451 31.535 L 451 31.535 L 451 31.535 Q 451 34.963 449.267 36.926 L 449.267 36.926 L 449.267 36.926 Q 447.533 38.889 444.447 38.889 L 444.447 38.889 L 444.447 38.889 Q 441.293 38.889 439.579 36.96 L 439.579 36.96 L 439.579 36.96 Q 437.865 35.031 437.865 31.515 L 437.865 31.515 L 437.865 31.515 Q 437.865 28.029 439.584 26.11 L 439.584 26.11 L 439.584 26.11 Q 441.303 24.191 444.467 24.191 L 444.467 24.191 L 444.467 24.191 Q 447.543 24.191 449.271 26.144 L 449.271 26.144 L 449.271 26.144 Q 451 28.098 451 31.535 Z  M 439.623 31.535 L 439.623 31.535 L 439.623 31.535 Q 439.623 34.435 440.858 35.934 L 440.858 35.934 L 440.858 35.934 Q 442.094 37.433 444.447 37.433 L 444.447 37.433 L 444.447 37.433 Q 446.82 37.433 448.031 35.939 L 448.031 35.939 L 448.031 35.939 Q 449.242 34.445 449.242 31.535 L 449.242 31.535 L 449.242 31.535 Q 449.242 28.654 448.036 27.165 L 448.036 27.165 L 448.036 27.165 Q 446.83 25.676 444.467 25.676 L 444.467 25.676 L 444.467 25.676 Q 442.094 25.676 440.858 27.175 L 440.858 27.175 L 440.858 27.175 Q 439.623 28.674 439.623 31.535 Z  M 453.705 37.658 L 453.705 37.658 L 453.705 37.658 Q 453.705 37.004 454.003 36.667 L 454.003 36.667 L 454.003 36.667 Q 454.301 36.33 454.857 36.33 L 454.857 36.33 L 454.857 36.33 Q 455.424 36.33 455.741 36.667 L 455.741 36.667 L 455.741 36.667 Q 456.059 37.004 456.059 37.658 L 456.059 37.658 L 456.059 37.658 Q 456.059 38.293 455.736 38.635 L 455.736 38.635 L 455.736 38.635 Q 455.414 38.976 454.857 38.976 L 454.857 38.976 L 454.857 38.976 Q 454.359 38.976 454.032 38.669 L 454.032 38.669 L 454.032 38.669 Q 453.705 38.361 453.705 37.658 Z  M 453.705 29.035 L 453.705 29.035 L 453.705 29.035 Q 453.705 27.717 454.857 27.717 L 454.857 27.717 L 454.857 27.717 Q 456.059 27.717 456.059 29.035 L 456.059 29.035 L 456.059 29.035 Q 456.059 29.67 455.736 30.012 L 455.736 30.012 L 455.736 30.012 Q 455.414 30.353 454.857 30.353 L 454.857 30.353 L 454.857 30.353 Q 454.359 30.353 454.032 30.046 L 454.032 30.046 L 454.032 30.046 Q 453.705 29.738 453.705 29.035 Z " fill="rgb(85,139,47)"/><path d=" M 512.045 27.775 L 512.045 27.775 L 512.045 27.775 Q 512.045 29.142 511.278 30.012 L 511.278 30.012 L 511.278 30.012 Q 510.512 30.881 509.105 31.174 L 509.105 31.174 L 509.105 31.252 L 509.105 31.252 Q 510.824 31.467 511.654 32.346 L 511.654 32.346 L 511.654 32.346 Q 512.484 33.224 512.484 34.65 L 512.484 34.65 L 512.484 34.65 Q 512.484 36.691 511.068 37.79 L 511.068 37.79 L 511.068 37.79 Q 509.652 38.889 507.045 38.889 L 507.045 38.889 L 507.045 38.889 Q 505.912 38.889 504.97 38.718 L 504.97 38.718 L 504.97 38.718 Q 504.027 38.547 503.139 38.117 L 503.139 38.117 L 503.139 36.574 L 503.139 36.574 Q 504.066 37.033 505.116 37.272 L 505.116 37.272 L 505.116 37.272 Q 506.166 37.512 507.104 37.512 L 507.104 37.512 L 507.104 37.512 Q 510.805 37.512 510.805 34.611 L 510.805 34.611 L 510.805 34.611 Q 510.805 32.014 506.723 32.014 L 506.723 32.014 L 505.316 32.014 L 505.316 30.617 L 506.742 30.617 L 506.742 30.617 Q 508.412 30.617 509.389 29.88 L 509.389 29.88 L 509.389 29.88 Q 510.365 29.142 510.365 27.834 L 510.365 27.834 L 510.365 27.834 Q 510.365 26.789 509.647 26.193 L 509.647 26.193 L 509.647 26.193 Q 508.93 25.598 507.699 25.598 L 507.699 25.598 L 507.699 25.598 Q 506.762 25.598 505.932 25.851 L 505.932 25.851 L 505.932 25.851 Q 505.102 26.105 504.037 26.789 L 504.037 26.789 L 503.217 25.695 L 503.217 25.695 Q 504.096 25.002 505.243 24.606 L 505.243 24.606 L 505.243 24.606 Q 506.391 24.211 507.66 24.211 L 507.66 24.211 L 507.66 24.211 Q 509.74 24.211 510.893 25.163 L 510.893 25.163 L 510.893 25.163 Q 512.045 26.115 512.045 27.775 Z  M 514.154 41.857 L 514.154 40.471 L 516.977 40.471 L 516.977 25.793 L 514.154 25.793 L 514.154 24.416 L 518.617 24.416 L 518.617 41.857 L 514.154 41.857 L 514.154 41.857 Z  M 481.645 40.471 L 481.645 41.857 L 477.182 41.857 L 477.182 24.416 L 481.645 24.416 L 481.645 25.793 L 478.822 25.793 L 478.822 40.471 L 481.645 40.471 L 481.645 40.471 Z  M 494.945 24.416 L 494.945 38.693 L 493.285 38.693 L 493.285 31.974 L 485.766 31.974 L 485.766 38.693 L 484.105 38.693 L 484.105 24.416 L 485.766 24.416 L 485.766 30.49 L 493.285 30.49 L 493.285 24.416 L 494.945 24.416 L 494.945 24.416 Z  M 498.383 37.658 L 498.383 37.658 L 498.383 37.658 Q 498.383 37.004 498.681 36.667 L 498.681 36.667 L 498.681 36.667 Q 498.979 36.33 499.535 36.33 L 499.535 36.33 L 499.535 36.33 Q 500.102 36.33 500.419 36.667 L 500.419 36.667 L 500.419 36.667 Q 500.736 37.004 500.736 37.658 L 500.736 37.658 L 500.736 37.658 Q 500.736 38.293 500.414 38.635 L 500.414 38.635 L 500.414 38.635 Q 500.092 38.976 499.535 38.976 L 499.535 38.976 L 499.535 38.976 Q 499.037 38.976 498.71 38.669 L 498.71 38.669 L 498.71 38.669 Q 498.383 38.361 498.383 37.658 Z  M 498.383 29.035 L 498.383 29.035 L 498.383 29.035 Q 498.383 27.717 499.535 27.717 L 499.535 27.717 L 499.535 27.717 Q 500.736 27.717 500.736 29.035 L 500.736 29.035 L 500.736 29.035 Q 500.736 29.67 500.414 30.012 L 500.414 30.012 L 500.414 30.012 Q 500.092 30.353 499.535 30.353 L 499.535 30.353 L 499.535 30.353 Q 499.037 30.353 498.71 30.046 L 498.71 30.046 L 498.71 30.046 Q 498.383 29.738 498.383 29.035 Z " fill="rgb(124,179,66)"/><path d=" M 525.355 33.215 L 525.355 33.215 L 525.355 33.215 Q 525.355 35.783 524.599 38 L 524.599 38 L 524.599 38 Q 523.842 40.217 522.416 41.857 L 522.416 41.857 L 520.854 41.857 L 520.854 41.857 Q 522.211 40.021 522.934 37.78 L 522.934 37.78 L 522.934 37.78 Q 523.656 35.539 523.656 33.195 L 523.656 33.195 L 523.656 33.195 Q 523.656 30.812 522.948 28.557 L 522.948 28.557 L 522.948 28.557 Q 522.24 26.301 520.834 24.416 L 520.834 24.416 L 522.416 24.416 L 522.416 24.416 Q 523.852 26.125 524.604 28.386 L 524.604 28.386 L 524.604 28.386 Q 525.355 30.646 525.355 33.215 Z " fill="rgb(144,164,174)"/><mask id="_mask_6JeNMDbWWqknCNCrqLhsI095bPD0wgeK" x="-200%" y="-200%" width="400%" height="400%"><rect x="-200%" y="-200%" width="400%" height="400%" style="fill:white;"/><line x1="340.252" y1="131.2" x2="302.862" y2="131.2" fill="black" stroke="none"/></mask><line x1="340.252" y1="131.2" x2="302.862" y2="131.2" vector-effect="non-scaling-stroke" stroke-width="4" stroke="rgb(1,87,155)" stroke-linejoin="round" stroke-linecap="round" stroke-miterlimit="4"/><mask id="_mask_9a9pv13hvT0DsFfhGZdS89TljzrFtBBU" x="-200%" y="-200%" width="400%" height="400%"><rect x="-200%" y="-200%" width="400%" height="400%" style="fill:white;"/><line x1="340.252" y1="131.2" x2="361.612" y2="131.2" fill="black" stroke="none"/></mask><line x1="340.252" y1="131.2" x2="361.612" y2="131.2" vector-effect="non-scaling-stroke" stroke-width="4" stroke="rgb(85,139,47)" stroke-linejoin="round" stroke-linecap="round" stroke-miterlimit="4"/><mask id="_mask_kbI1nfXdBeGc64uu01VDnyXxd89m1Z0Y" x="-200%" y="-200%" width="400%" height="400%"><rect x="-200%" y="-200%" width="400%" height="400%" style="fill:white;"/><line x1="302.862" y1="131.2" x2="228.082" y2="131.2" fill="black" stroke="none"/></mask><line x1="302.862" y1="131.2" x2="228.082" y2="131.2" vector-effect="non-scaling-stroke" stroke-width="4" stroke="rgb(1,87,155)" stroke-linejoin="round" stroke-linecap="round" stroke-miterlimit="4"/><mask id="_mask_WHwyzYcI37pZT9UNlUR9HFbjmIglVol0" x="-200%" y="-200%" width="400%" height="400%"><rect x="-200%" y="-200%" width="400%" height="400%" style="fill:white;"/><line x1="190.692" y1="131.2" x2="228.082" y2="131.2" fill="black" stroke="none"/></mask><line x1="190.692" y1="131.2" x2="228.082" y2="131.2" vector-effect="non-scaling-stroke" stroke-width="4" stroke="rgb(1,87,155)" stroke-linejoin="round" stroke-linecap="round" stroke-miterlimit="4"/><mask id="_mask_KuaE5vxnzDmrEbX2ozz6jXJOt6yZ2OKi" x="-200%" y="-200%" width="400%" height="400%"><rect x="-200%" y="-200%" width="400%" height="400%" style="fill:white;"/><line x1="190.692" y1="131.2" x2="169.332" y2="131.2" fill="black" stroke="none"/></mask><line x1="190.692" y1="131.2" x2="169.332" y2="131.2" vector-effect="non-scaling-stroke" stroke-width="4" stroke="rgb(85,139,47)" stroke-linejoin="round" stroke-linecap="round" stroke-miterlimit="4"/><mask id="_mask_nU1d2pzFcOVxXv7MqVVgQuEE8viM1KcX" x="-200%" y="-200%" width="400%" height="400%"><rect x="-200%" y="-200%" width="400%" height="400%" style="fill:white;"/><line x1="302.862" y1="159.24" x2="302.862" y2="131.2" fill="black" stroke="none"/></mask><line x1="302.862" y1="159.24" x2="302.862" y2="131.2" vector-effect="non-scaling-stroke" stroke-width="4" stroke="rgb(1,87,155)" stroke-linejoin="round" stroke-linecap="round" stroke-miterlimit="4"/><mask id="_mask_C6KTA5SHxU2myu7tdYTfKqA59Tku7aWz" x="-200%" y="-200%" width="400%" height="400%"><rect x="-200%" y="-200%" width="400%" height="400%" style="fill:white;"/><line x1="302.862" y1="159.24" x2="302.862" y2="173.45" fill="black" stroke="none"/></mask><line x1="302.862" y1="159.24" x2="302.862" y2="173.45" vector-effect="non-scaling-stroke" stroke-width="4" stroke="rgb(3,155,229)" stroke-linejoin="round" stroke-linecap="round" stroke-miterlimit="4"/><mask id="_mask_J1ZYBSmolYAoanJegECRxAeqkNfPGsSn" x="-200%" y="-200%" width="400%" height="400%"><rect x="-200%" y="-200%" width="400%" height="400%" style="fill:white;"/><line x1="392.752" y1="157.38" x2="398.762" y2="167.79" fill="black" stroke="none"/></mask><line x1="392.752" y1="157.38" x2="398.762" y2="167.79" vector-effect="non-scaling-stroke" stroke-width="4" stroke="rgb(124,179,66)" stroke-linejoin="round" stroke-linecap="round" stroke-miterlimit="4"/><mask id="_mask_6fKFsnEmkyfRl12SmO6nbQFEveGTvQaP" x="-200%" y="-200%" width="400%" height="400%"><rect x="-200%" y="-200%" width="400%" height="400%" style="fill:white;"/><line x1="392.752" y1="157.38" x2="385.652" y2="145.08" fill="black" stroke="none"/></mask><line x1="392.752" y1="157.38" x2="385.652" y2="145.08" vector-effect="non-scaling-stroke" stroke-width="4" stroke="rgb(85,139,47)" stroke-linejoin="round" stroke-linecap="round" stroke-miterlimit="4"/><mask id="_mask_roLhBVk4tIbxbrXfP4khjzHCh3k6qLyJ" x="-200%" y="-200%" width="400%" height="400%"><rect x="-200%" y="-200%" width="400%" height="400%" style="fill:white;"/><line x1="228.082" y1="103.16" x2="228.082" y2="131.2" fill="black" stroke="none"/></mask><line x1="228.082" y1="103.16" x2="228.082" y2="131.2" vector-effect="non-scaling-stroke" stroke-width="4" stroke="rgb(1,87,155)" stroke-linejoin="round" stroke-linecap="round" stroke-miterlimit="4"/><mask id="_mask_HsqmujShCLw56zHmfCbLgn7zfKh9Rua6" x="-200%" y="-200%" width="400%" height="400%"><rect x="-200%" y="-200%" width="400%" height="400%" style="fill:white;"/><line x1="228.082" y1="103.16" x2="228.082" y2="88.95" fill="black" stroke="none"/></mask><line x1="228.082" y1="103.16" x2="228.082" y2="88.95" vector-effect="non-scaling-stroke" stroke-width="4" stroke="rgb(3,155,229)" stroke-linejoin="round" stroke-linecap="round" stroke-miterlimit="4"/><mask id="_mask_imNvMRgJg4my6fW6mGYUDi6WITzclGWV" x="-200%" y="-200%" width="400%" height="400%"><rect x="-200%" y="-200%" width="400%" height="400%" style="fill:white;"/><line x1="228.082" y1="159.24" x2="228.082" y2="131.2" fill="black" stroke="none"/></mask><line x1="228.082" y1="159.24" x2="228.082" y2="131.2" vector-effect="non-scaling-stroke" stroke-width="4" stroke="rgb(1,87,155)" stroke-linejoin="round" stroke-linecap="round" stroke-miterlimit="4"/><mask id="_mask_jLRyshpGWuvcLZrVPigISMHb9y3njm85" x="-200%" y="-200%" width="400%" height="400%"><rect x="-200%" y="-200%" width="400%" height="400%" style="fill:white;"/><line x1="228.082" y1="159.24" x2="228.082" y2="173.45" fill="black" stroke="none"/></mask><line x1="228.082" y1="159.24" x2="228.082" y2="173.45" vector-effect="non-scaling-stroke" stroke-width="4" stroke="rgb(3,155,229)" stroke-linejoin="round" stroke-linecap="round" stroke-miterlimit="4"/><mask id="_mask_05N3dtKz8t7f1l3kOGSWHzNePzuZFouS" x="-200%" y="-200%" width="400%" height="400%"><rect x="-200%" y="-200%" width="400%" height="400%" style="fill:white;"/><line x1="138.192" y1="105.02" x2="132.182" y2="94.61" fill="black" stroke="none"/></mask><line x1="138.192" y1="105.02" x2="132.182" y2="94.61" vector-effect="non-scaling-stroke" stroke-width="4" stroke="rgb(124,179,66)" stroke-linejoin="round" stroke-linecap="round" stroke-miterlimit="4"/><mask id="_mask_g1q8AYjBnwfvsSSQCYDxYKiA2zlWxLdd" x="-200%" y="-200%" width="400%" height="400%"><rect x="-200%" y="-200%" width="400%" height="400%" style="fill:white;"/><line x1="138.192" y1="105.02" x2="145.292" y2="117.32" fill="black" stroke="none"/></mask><line x1="138.192" y1="105.02" x2="145.292" y2="117.32" vector-effect="non-scaling-stroke" stroke-width="4" stroke="rgb(85,139,47)" stroke-linejoin="round" stroke-linecap="round" stroke-miterlimit="4"/><path d=" M 383.102 130.986 L 383.102 130.986 L 383.102 130.986 Q 383.102 134.414 381.369 136.376 L 381.369 136.376 L 381.369 136.376 Q 379.635 138.339 376.549 138.339 L 376.549 138.339 L 376.549 138.339 Q 373.395 138.339 371.681 136.411 L 371.681 136.411 L 371.681 136.411 Q 369.967 134.482 369.967 130.966 L 369.967 130.966 L 369.967 130.966 Q 369.967 127.48 371.686 125.561 L 371.686 125.561 L 371.686 125.561 Q 373.405 123.642 376.569 123.642 L 376.569 123.642 L 376.569 123.642 Q 379.645 123.642 381.374 125.595 L 381.374 125.595 L 381.374 125.595 Q 383.102 127.548 383.102 130.986 Z  M 371.725 130.986 L 371.725 130.986 L 371.725 130.986 Q 371.725 133.886 372.96 135.385 L 372.96 135.385 L 372.96 135.385 Q 374.196 136.884 376.549 136.884 L 376.549 136.884 L 376.549 136.884 Q 378.922 136.884 380.133 135.39 L 380.133 135.39 L 380.133 135.39 Q 381.344 133.896 381.344 130.986 L 381.344 130.986 L 381.344 130.986 Q 381.344 128.105 380.138 126.616 L 380.138 126.616 L 380.138 126.616 Q 378.932 125.126 376.569 125.126 L 376.569 125.126 L 376.569 125.126 Q 374.196 125.126 372.96 126.625 L 372.96 126.625 L 372.96 126.625 Q 371.725 128.124 371.725 130.986 Z " fill="rgb(85,139,47)"/><path d=" M 160.102 130.986 L 160.102 130.986 L 160.102 130.986 Q 160.102 134.414 158.369 136.376 L 158.369 136.376 L 158.369 136.376 Q 156.635 138.339 153.549 138.339 L 153.549 138.339 L 153.549 138.339 Q 150.395 138.339 148.681 136.411 L 148.681 136.411 L 148.681 136.411 Q 146.967 134.482 146.967 130.966 L 146.967 130.966 L 146.967 130.966 Q 146.967 127.48 148.686 125.561 L 148.686 125.561 L 148.686 125.561 Q 150.405 123.642 153.569 123.642 L 153.569 123.642 L 153.569 123.642 Q 156.645 123.642 158.374 125.595 L 158.374 125.595 L 158.374 125.595 Q 160.102 127.548 160.102 130.986 Z  M 148.725 130.986 L 148.725 130.986 L 148.725 130.986 Q 148.725 133.886 149.96 135.385 L 149.96 135.385 L 149.96 135.385 Q 151.196 136.884 153.549 136.884 L 153.549 136.884 L 153.549 136.884 Q 155.922 136.884 157.133 135.39 L 157.133 135.39 L 157.133 135.39 Q 158.344 133.896 158.344 130.986 L 158.344 130.986 L 158.344 130.986 Q 158.344 128.105 157.138 126.616 L 157.138 126.616 L 157.138 126.616 Q 155.932 125.126 153.569 125.126 L 153.569 125.126 L 153.569 125.126 Q 151.196 125.126 149.96 126.625 L 149.96 126.625 L 149.96 126.625 Q 148.725 128.125 148.725 130.986 Z " fill="rgb(85,139,47)"/><path d=" M 308.282 178.737 L 308.282 193.014 L 306.622 193.014 L 306.622 186.295 L 299.102 186.295 L 299.102 193.014 L 297.442 193.014 L 297.442 178.737 L 299.102 178.737 L 299.102 184.811 L 306.622 184.811 L 306.622 178.737 L 308.282 178.737 Z " fill="rgb(3,155,229)"/><mask id="_mask_kjKncnubF2yLkNbvRmqVCBCxib1tbDFM" x="-200%" y="-200%" width="400%" height="400%"><rect x="-200%" y="-200%" width="400%" height="400%" style="fill:white;"/><line x1="302.862" y1="103.16" x2="302.862" y2="131.2" fill="black" stroke="none"/></mask><line x1="302.862" y1="103.16" x2="302.862" y2="131.2" vector-effect="non-scaling-stroke" stroke-width="4" stroke="rgb(1,87,155)" stroke-linejoin="round" stroke-linecap="round" stroke-miterlimit="4"/><mask id="_mask_7voos9H001kV2k3Ru3merKus56OnA62F" x="-200%" y="-200%" width="400%" height="400%"><rect x="-200%" y="-200%" width="400%" height="400%" style="fill:white;"/><line x1="302.862" y1="103.16" x2="302.862" y2="88.95" fill="black" stroke="none"/></mask><line x1="302.862" y1="103.16" x2="302.862" y2="88.95" vector-effect="non-scaling-stroke" stroke-width="4" stroke="rgb(3,155,229)" stroke-linejoin="round" stroke-linecap="round" stroke-miterlimit="4"/><path d=" M 308.282 70.302 L 308.282 84.579 L 306.622 84.579 L 306.622 77.86 L 299.102 77.86 L 299.102 84.579 L 297.442 84.579 L 297.442 70.302 L 299.102 70.302 L 299.102 76.376 L 306.622 76.376 L 306.622 70.302 L 308.282 70.302 Z " fill="rgb(3,155,229)"/><path d=" M 398.29 186.858 L 398.29 172.58 L 399.95 172.58 L 399.95 179.299 L 407.47 179.299 L 407.47 172.58 L 409.13 172.58 L 409.13 186.858 L 407.47 186.858 L 407.47 180.783 L 399.95 180.783 L 399.95 186.858 L 398.29 186.858 Z " fill="rgb(124,179,66)"/><path d=" M 233.502 70.302 L 233.502 84.579 L 231.842 84.579 L 231.842 77.86 L 224.322 77.86 L 224.322 84.579 L 222.662 84.579 L 222.662 70.302 L 224.322 70.302 L 224.322 76.376 L 231.842 76.376 L 231.842 70.302 L 233.502 70.302 Z " fill="rgb(3,155,229)"/><path d=" M 233.502 178.737 L 233.502 193.014 L 231.842 193.014 L 231.842 186.295 L 224.322 186.295 L 224.322 193.014 L 222.662 193.014 L 222.662 178.737 L 224.322 178.737 L 224.322 184.811 L 231.842 184.811 L 231.842 178.737 L 233.502 178.737 Z " fill="rgb(3,155,229)"/><path d=" M 128.71 75.44 L 128.71 89.718 L 127.05 89.718 L 127.05 82.999 L 119.53 82.999 L 119.53 89.718 L 117.87 89.718 L 117.87 75.44 L 119.53 75.44 L 119.53 81.514 L 127.05 81.514 L 127.05 75.44 L 128.71 75.44 Z " fill="rgb(124,179,66)"/><path d=" M 239.981 125.05 L 241.065 125.05 L 241.065 116.518 L 240.977 116.518 L 237.748 117.761 L 237.748 118.751 L 239.981 117.901 L 239.981 125.05 L 239.981 125.05 Z " fill="rgb(144,164,174)"/><path d=" M 161.164 147.978 L 166.753 147.978 L 166.753 147.093 L 162.47 147.093 L 164.761 144.609 L 164.761 144.609 Q 165.084 144.258 165.374 143.903 L 165.374 143.903 L 165.374 143.903 Q 165.664 143.549 165.886 143.185 L 165.886 143.185 L 165.886 143.185 Q 166.103 142.822 166.232 142.45 L 166.232 142.45 L 166.232 142.45 Q 166.361 142.078 166.361 141.697 L 166.361 141.697 L 166.361 141.697 Q 166.361 141.187 166.182 140.754 L 166.182 140.754 L 166.182 140.754 Q 166.003 140.32 165.669 140.004 L 165.669 140.004 L 165.669 140.004 Q 165.335 139.687 164.852 139.508 L 164.852 139.508 L 164.852 139.508 Q 164.369 139.33 163.765 139.33 L 163.765 139.33 L 163.765 139.33 Q 163.109 139.33 162.596 139.541 L 162.596 139.541 L 162.596 139.541 Q 162.084 139.752 161.732 140.109 L 161.732 140.109 L 161.732 140.109 Q 161.375 140.467 161.187 140.944 L 161.187 140.944 L 161.187 140.944 Q 161 141.422 161 141.961 L 161 141.961 L 162.089 141.961 L 162.089 141.961 Q 162.089 141.562 162.192 141.24 L 162.192 141.24 L 162.192 141.24 Q 162.294 140.918 162.505 140.689 L 162.505 140.689 L 162.505 140.689 Q 162.71 140.467 163.024 140.343 L 163.024 140.343 L 163.024 140.343 Q 163.337 140.22 163.765 140.22 L 163.765 140.22 L 163.765 140.22 Q 164.117 140.22 164.395 140.341 L 164.395 140.341 L 164.395 140.341 Q 164.673 140.461 164.873 140.666 L 164.873 140.666 L 164.873 140.666 Q 165.066 140.871 165.168 141.149 L 165.168 141.149 L 165.168 141.149 Q 165.271 141.427 165.271 141.744 L 165.271 141.744 L 165.271 141.744 Q 165.271 142.002 165.207 142.245 L 165.207 142.245 L 165.207 142.245 Q 165.142 142.488 164.99 142.758 L 164.99 142.758 L 164.99 142.758 Q 164.837 143.033 164.585 143.355 L 164.585 143.355 L 164.585 143.355 Q 164.334 143.677 163.959 144.093 L 163.959 144.093 L 161.164 147.199 L 161.164 147.978 L 161.164 147.978 Z " fill="rgb(144,164,174)"/><path d=" M 135.2 75.314 L 134.426 75.314 L 134.426 76.193 L 135.2 76.193 L 135.2 76.193 Q 135.604 76.193 135.941 76.287 L 135.941 76.287 L 135.941 76.287 Q 136.278 76.381 136.518 76.574 L 136.518 76.574 L 136.518 76.574 Q 136.752 76.767 136.884 77.057 L 136.884 77.057 L 136.884 77.057 Q 137.016 77.347 137.016 77.746 L 137.016 77.746 L 137.016 77.746 Q 137.016 78.15 136.902 78.446 L 136.902 78.446 L 136.902 78.446 Q 136.788 78.742 136.577 78.941 L 136.577 78.941 L 136.577 78.941 Q 136.366 79.14 136.067 79.237 L 136.067 79.237 L 136.067 79.237 Q 135.768 79.334 135.399 79.334 L 135.399 79.334 L 135.399 79.334 Q 135.03 79.334 134.728 79.228 L 134.728 79.228 L 134.728 79.228 Q 134.426 79.123 134.215 78.929 L 134.215 78.929 L 134.215 78.929 Q 134.004 78.736 133.89 78.461 L 133.89 78.461 L 133.89 78.461 Q 133.776 78.185 133.776 77.851 L 133.776 77.851 L 132.692 77.851 L 132.692 77.851 Q 132.692 78.414 132.906 78.853 L 132.906 78.853 L 132.906 78.853 Q 133.12 79.293 133.483 79.597 L 133.483 79.597 L 133.483 79.597 Q 133.846 79.902 134.341 80.06 L 134.341 80.06 L 134.341 80.06 Q 134.836 80.219 135.399 80.219 L 135.399 80.219 L 135.399 80.219 Q 135.973 80.219 136.468 80.052 L 136.468 80.052 L 136.468 80.052 Q 136.963 79.885 137.327 79.562 L 137.327 79.562 L 137.327 79.562 Q 137.69 79.246 137.895 78.783 L 137.895 78.783 L 137.895 78.783 Q 138.1 78.32 138.1 77.722 L 138.1 77.722 L 138.1 77.722 Q 138.1 77.429 138.033 77.131 L 138.033 77.131 L 138.033 77.131 Q 137.965 76.832 137.801 76.562 L 137.801 76.562 L 137.801 76.562 Q 137.631 76.293 137.353 76.076 L 137.353 76.076 L 137.353 76.076 Q 137.075 75.859 136.659 75.724 L 136.659 75.724 L 136.659 75.724 Q 137.004 75.578 137.253 75.358 L 137.253 75.358 L 137.253 75.358 Q 137.502 75.138 137.661 74.886 L 137.661 74.886 L 137.661 74.886 Q 137.819 74.64 137.895 74.377 L 137.895 74.377 L 137.895 74.377 Q 137.971 74.113 137.971 73.867 L 137.971 73.867 L 137.971 73.867 Q 137.971 73.275 137.784 72.824 L 137.784 72.824 L 137.784 72.824 Q 137.596 72.373 137.256 72.068 L 137.256 72.068 L 137.256 72.068 Q 136.917 71.763 136.442 71.608 L 136.442 71.608 L 136.442 71.608 Q 135.967 71.453 135.393 71.453 L 135.393 71.453 L 135.393 71.453 Q 134.801 71.453 134.318 71.637 L 134.318 71.637 L 134.318 71.637 Q 133.835 71.822 133.489 72.138 L 133.489 72.138 L 133.489 72.138 Q 133.143 72.461 132.953 72.891 L 132.953 72.891 L 132.953 72.891 Q 132.762 73.322 132.762 73.808 L 132.762 73.808 L 133.852 73.808 L 133.852 73.808 Q 133.852 73.474 133.963 73.205 L 133.963 73.205 L 133.963 73.205 Q 134.075 72.935 134.28 72.742 L 134.28 72.742 L 134.28 72.742 Q 134.479 72.549 134.763 72.446 L 134.763 72.446 L 134.763 72.446 Q 135.047 72.344 135.393 72.344 L 135.393 72.344 L 135.393 72.344 Q 135.751 72.344 136.029 72.434 L 136.029 72.434 L 136.029 72.434 Q 136.307 72.525 136.495 72.707 L 136.495 72.707 L 136.495 72.707 Q 136.688 72.894 136.788 73.178 L 136.788 73.178 L 136.788 73.178 Q 136.887 73.463 136.887 73.844 L 136.887 73.844 L 136.887 73.844 Q 136.887 74.166 136.776 74.435 L 136.776 74.435 L 136.776 74.435 Q 136.665 74.705 136.454 74.898 L 136.454 74.898 L 136.454 74.898 Q 136.237 75.092 135.923 75.203 L 135.923 75.203 L 135.923 75.203 Q 135.61 75.314 135.2 75.314 L 135.2 75.314 L 135.2 75.314 Z " fill="rgb(144,164,174)"/><path d=" M 415.588 186.732 L 414.815 186.732 L 414.815 187.61 L 415.588 187.61 L 415.588 187.61 Q 415.992 187.61 416.329 187.704 L 416.329 187.704 L 416.329 187.704 Q 416.666 187.798 416.906 187.991 L 416.906 187.991 L 416.906 187.991 Q 417.141 188.185 417.273 188.475 L 417.273 188.475 L 417.273 188.475 Q 417.404 188.765 417.404 189.163 L 417.404 189.163 L 417.404 189.163 Q 417.404 189.568 417.29 189.863 L 417.29 189.863 L 417.29 189.863 Q 417.176 190.159 416.965 190.359 L 416.965 190.359 L 416.965 190.359 Q 416.754 190.558 416.455 190.654 L 416.455 190.654 L 416.455 190.654 Q 416.156 190.751 415.787 190.751 L 415.787 190.751 L 415.787 190.751 Q 415.418 190.751 415.116 190.646 L 415.116 190.646 L 415.116 190.646 Q 414.815 190.54 414.604 190.347 L 414.604 190.347 L 414.604 190.347 Q 414.393 190.153 414.278 189.878 L 414.278 189.878 L 414.278 189.878 Q 414.164 189.603 414.164 189.269 L 414.164 189.269 L 413.08 189.269 L 413.08 189.269 Q 413.08 189.831 413.294 190.271 L 413.294 190.271 L 413.294 190.271 Q 413.508 190.71 413.871 191.015 L 413.871 191.015 L 413.871 191.015 Q 414.234 191.319 414.73 191.478 L 414.73 191.478 L 414.73 191.478 Q 415.225 191.636 415.787 191.636 L 415.787 191.636 L 415.787 191.636 Q 416.361 191.636 416.857 191.469 L 416.857 191.469 L 416.857 191.469 Q 417.352 191.302 417.715 190.98 L 417.715 190.98 L 417.715 190.98 Q 418.078 190.663 418.283 190.2 L 418.283 190.2 L 418.283 190.2 Q 418.488 189.737 418.488 189.14 L 418.488 189.14 L 418.488 189.14 Q 418.488 188.847 418.421 188.548 L 418.421 188.548 L 418.421 188.548 Q 418.354 188.249 418.19 187.98 L 418.19 187.98 L 418.19 187.98 Q 418.02 187.71 417.741 187.493 L 417.741 187.493 L 417.741 187.493 Q 417.463 187.276 417.047 187.142 L 417.047 187.142 L 417.047 187.142 Q 417.393 186.995 417.642 186.776 L 417.642 186.776 L 417.642 186.776 Q 417.891 186.556 418.049 186.304 L 418.049 186.304 L 418.049 186.304 Q 418.207 186.058 418.283 185.794 L 418.283 185.794 L 418.283 185.794 Q 418.359 185.53 418.359 185.284 L 418.359 185.284 L 418.359 185.284 Q 418.359 184.693 418.172 184.241 L 418.172 184.241 L 418.172 184.241 Q 417.984 183.79 417.645 183.485 L 417.645 183.485 L 417.645 183.485 Q 417.305 183.181 416.83 183.026 L 416.83 183.026 L 416.83 183.026 Q 416.356 182.87 415.781 182.87 L 415.781 182.87 L 415.781 182.87 Q 415.19 182.87 414.706 183.055 L 414.706 183.055 L 414.706 183.055 Q 414.223 183.239 413.877 183.556 L 413.877 183.556 L 413.877 183.556 Q 413.531 183.878 413.341 184.309 L 413.341 184.309 L 413.341 184.309 Q 413.15 184.739 413.15 185.226 L 413.15 185.226 L 414.24 185.226 L 414.24 185.226 Q 414.24 184.892 414.352 184.622 L 414.352 184.622 L 414.352 184.622 Q 414.463 184.353 414.668 184.159 L 414.668 184.159 L 414.668 184.159 Q 414.867 183.966 415.151 183.863 L 415.151 183.863 L 415.151 183.863 Q 415.436 183.761 415.781 183.761 L 415.781 183.761 L 415.781 183.761 Q 416.139 183.761 416.417 183.852 L 416.417 183.852 L 416.417 183.852 Q 416.695 183.943 416.883 184.124 L 416.883 184.124 L 416.883 184.124 Q 417.076 184.312 417.176 184.596 L 417.176 184.596 L 417.176 184.596 Q 417.275 184.88 417.275 185.261 L 417.275 185.261 L 417.275 185.261 Q 417.275 185.583 417.164 185.853 L 417.164 185.853 L 417.164 185.853 Q 417.053 186.122 416.842 186.316 L 416.842 186.316 L 416.842 186.316 Q 416.625 186.509 416.312 186.62 L 416.312 186.62 L 416.312 186.62 Q 415.998 186.732 415.588 186.732 L 415.588 186.732 L 415.588 186.732 Z " fill="rgb(144,164,174)"/><path d=" M 243.133 86.375 L 241.943 86.375 L 241.943 80.709 L 240.789 80.709 L 236.969 86.621 L 236.969 87.26 L 240.859 87.26 L 240.859 89.24 L 241.943 89.24 L 241.943 87.26 L 243.133 87.26 L 243.133 86.375 L 243.133 86.375 Z  M 240.859 86.375 L 238.17 86.375 L 240.684 82.478 L 240.859 82.15 L 240.859 86.375 L 240.859 86.375 Z " fill="rgb(144,164,174)"/><path d=" M 316.245 81.676 L 316.245 80.703 L 316.151 80.703 L 316.151 80.703 Q 315.237 80.703 314.516 80.958 L 314.516 80.958 L 314.516 80.958 Q 313.796 81.213 313.292 81.717 L 313.292 81.717 L 313.292 81.717 Q 312.559 82.449 312.307 83.48 L 312.307 83.48 L 312.307 83.48 Q 312.056 84.512 312.056 85.578 L 312.056 85.578 L 312.056 86.088 L 312.056 86.088 Q 312.056 86.709 312.243 87.327 L 312.243 87.327 L 312.243 87.327 Q 312.431 87.945 312.811 88.408 L 312.811 88.408 L 312.811 88.408 Q 313.151 88.83 313.649 89.094 L 313.649 89.094 L 313.649 89.094 Q 314.147 89.357 314.804 89.357 L 314.804 89.357 L 314.804 89.357 Q 315.454 89.357 315.949 89.129 L 315.949 89.129 L 315.949 89.129 Q 316.444 88.9 316.778 88.502 L 316.778 88.502 L 316.778 88.502 Q 317.112 88.109 317.279 87.582 L 317.279 87.582 L 317.279 87.582 Q 317.446 87.054 317.446 86.457 L 317.446 86.457 L 317.446 86.457 Q 317.446 85.935 317.306 85.431 L 317.306 85.431 L 317.306 85.431 Q 317.165 84.928 316.866 84.529 L 316.866 84.529 L 316.866 84.529 Q 316.567 84.131 316.104 83.887 L 316.104 83.887 L 316.104 83.887 Q 315.641 83.644 315.003 83.644 L 315.003 83.644 L 315.003 83.644 Q 314.71 83.644 314.443 83.712 L 314.443 83.712 L 314.443 83.712 Q 314.177 83.779 313.948 83.89 L 313.948 83.89 L 313.948 83.89 Q 313.714 84.008 313.515 84.163 L 313.515 84.163 L 313.515 84.163 Q 313.315 84.318 313.163 84.5 L 313.163 84.5 L 313.163 84.5 Q 313.198 83.937 313.389 83.404 L 313.389 83.404 L 313.389 83.404 Q 313.579 82.871 313.948 82.484 L 313.948 82.484 L 313.948 82.484 Q 314.3 82.115 314.839 81.895 L 314.839 81.895 L 314.839 81.895 Q 315.378 81.676 316.151 81.676 L 316.151 81.676 L 316.245 81.676 L 316.245 81.676 Z  M 314.827 84.547 L 314.827 84.547 L 314.827 84.547 Q 315.22 84.547 315.513 84.711 L 315.513 84.711 L 315.513 84.711 Q 315.806 84.875 315.999 85.15 L 315.999 85.15 L 315.999 85.15 Q 316.192 85.426 316.286 85.78 L 316.286 85.78 L 316.286 85.78 Q 316.38 86.135 316.38 86.51 L 316.38 86.51 L 316.38 86.51 Q 316.38 86.931 316.277 87.292 L 316.277 87.292 L 316.277 87.292 Q 316.175 87.652 315.975 87.91 L 315.975 87.91 L 315.975 87.91 Q 315.77 88.168 315.477 88.314 L 315.477 88.314 L 315.477 88.314 Q 315.184 88.461 314.804 88.461 L 314.804 88.461 L 314.804 88.461 Q 314.475 88.461 314.177 88.305 L 314.177 88.305 L 314.177 88.305 Q 313.878 88.15 313.649 87.851 L 313.649 87.851 L 313.649 87.851 Q 313.421 87.553 313.286 87.116 L 313.286 87.116 L 313.286 87.116 Q 313.151 86.679 313.151 86.117 L 313.151 86.117 L 313.151 85.754 L 313.151 85.754 Q 313.251 85.484 313.421 85.262 L 313.421 85.262 L 313.421 85.262 Q 313.591 85.039 313.813 84.881 L 313.813 84.881 L 313.813 84.881 Q 314.036 84.722 314.294 84.635 L 314.294 84.635 L 314.294 84.635 Q 314.552 84.547 314.827 84.547 Z " fill="rgb(144,164,174)"/><path d=" M 238.363 190.901 L 237.936 195.154 L 238.803 195.377 L 238.803 195.377 Q 238.949 195.248 239.087 195.149 L 239.087 195.149 L 239.087 195.149 Q 239.225 195.049 239.383 194.979 L 239.383 194.979 L 239.383 194.979 Q 239.541 194.908 239.737 194.87 L 239.737 194.87 L 239.737 194.87 Q 239.934 194.832 240.203 194.832 L 240.203 194.832 L 240.203 194.832 Q 240.613 194.832 240.93 194.979 L 240.93 194.979 L 240.93 194.979 Q 241.246 195.125 241.463 195.377 L 241.463 195.377 L 241.463 195.377 Q 241.68 195.635 241.794 195.981 L 241.794 195.981 L 241.794 195.981 Q 241.908 196.326 241.908 196.725 L 241.908 196.725 L 241.908 196.725 Q 241.908 197.164 241.806 197.522 L 241.806 197.522 L 241.806 197.522 Q 241.703 197.879 241.504 198.131 L 241.504 198.131 L 241.504 198.131 Q 241.299 198.389 241 198.526 L 241 198.526 L 241 198.526 Q 240.701 198.664 240.315 198.664 L 240.315 198.664 L 240.315 198.664 Q 239.629 198.664 239.192 198.289 L 239.192 198.289 L 239.192 198.289 Q 238.756 197.914 238.656 197.188 L 238.656 197.188 L 237.625 197.188 L 237.625 197.188 Q 237.684 197.779 237.915 198.225 L 237.915 198.225 L 237.915 198.225 Q 238.147 198.67 238.51 198.963 L 238.51 198.963 L 238.51 198.963 Q 238.867 199.256 239.33 199.402 L 239.33 199.402 L 239.33 199.402 Q 239.793 199.549 240.315 199.549 L 240.315 199.549 L 240.315 199.549 Q 240.994 199.549 241.498 199.335 L 241.498 199.335 L 241.498 199.335 Q 242.002 199.121 242.336 198.74 L 242.336 198.74 L 242.336 198.74 Q 242.664 198.365 242.828 197.844 L 242.828 197.844 L 242.828 197.844 Q 242.992 197.322 242.992 196.713 L 242.992 196.713 L 242.992 196.713 Q 242.992 196.068 242.816 195.541 L 242.816 195.541 L 242.816 195.541 Q 242.641 195.014 242.313 194.639 L 242.313 194.639 L 242.313 194.639 Q 241.984 194.27 241.516 194.065 L 241.516 194.065 L 241.516 194.065 Q 241.047 193.86 240.455 193.86 L 240.455 193.86 L 240.455 193.86 Q 239.992 193.86 239.641 193.971 L 239.641 193.971 L 239.641 193.971 Q 239.289 194.082 239.037 194.229 L 239.037 194.229 L 239.277 191.955 L 242.74 191.955 L 242.74 190.901 L 238.363 190.901 L 238.363 190.901 Z " fill="rgb(144,164,174)"/><path d=" M 314.118 199.432 L 317.651 191.51 L 317.651 190.901 L 311.886 190.901 L 311.886 191.85 L 316.503 191.85 L 312.981 199.432 L 314.118 199.432 L 314.118 199.432 Z " fill="rgb(144,164,174)"/><path d=" M 386.713 125.05 L 392.303 125.05 L 392.303 124.165 L 388.02 124.165 L 390.311 121.68 L 390.311 121.68 Q 390.633 121.329 390.923 120.974 L 390.923 120.974 L 390.923 120.974 Q 391.213 120.62 391.436 120.257 L 391.436 120.257 L 391.436 120.257 Q 391.653 119.893 391.782 119.521 L 391.782 119.521 L 391.782 119.521 Q 391.911 119.149 391.911 118.768 L 391.911 118.768 L 391.911 118.768 Q 391.911 118.259 391.732 117.825 L 391.732 117.825 L 391.732 117.825 Q 391.553 117.391 391.219 117.075 L 391.219 117.075 L 391.219 117.075 Q 390.885 116.759 390.402 116.58 L 390.402 116.58 L 390.402 116.58 Q 389.918 116.401 389.315 116.401 L 389.315 116.401 L 389.315 116.401 Q 388.659 116.401 388.146 116.612 L 388.146 116.612 L 388.146 116.612 Q 387.633 116.823 387.282 117.18 L 387.282 117.18 L 387.282 117.18 Q 386.924 117.538 386.737 118.015 L 386.737 118.015 L 386.737 118.015 Q 386.549 118.493 386.549 119.032 L 386.549 119.032 L 387.639 119.032 L 387.639 119.032 Q 387.639 118.634 387.742 118.311 L 387.742 118.311 L 387.742 118.311 Q 387.844 117.989 388.055 117.761 L 388.055 117.761 L 388.055 117.761 Q 388.26 117.538 388.574 117.415 L 388.574 117.415 L 388.574 117.415 Q 388.887 117.292 389.315 117.292 L 389.315 117.292 L 389.315 117.292 Q 389.666 117.292 389.945 117.412 L 389.945 117.412 L 389.945 117.412 Q 390.223 117.532 390.422 117.737 L 390.422 117.737 L 390.422 117.737 Q 390.616 117.942 390.718 118.22 L 390.718 118.22 L 390.718 118.22 Q 390.821 118.499 390.821 118.815 L 390.821 118.815 L 390.821 118.815 Q 390.821 119.073 390.756 119.316 L 390.756 119.316 L 390.756 119.316 Q 390.692 119.559 390.539 119.829 L 390.539 119.829 L 390.539 119.829 Q 390.387 120.104 390.135 120.427 L 390.135 120.427 L 390.135 120.427 Q 389.883 120.749 389.508 121.165 L 389.508 121.165 L 386.713 124.27 L 386.713 125.05 L 386.713 125.05 Z " fill="rgb(144,164,174)"/><path d=" M 314.681 125.05 L 315.765 125.05 L 315.765 116.518 L 315.677 116.518 L 312.448 117.761 L 312.448 118.751 L 314.681 117.901 L 314.681 125.05 L 314.681 125.05 Z " fill="rgb(144,164,174)"/></svg>