<?xml version="1.0" encoding="UTF-8" standalone="no"?><!-- Generator: Gravit.io --><svg xmlns="http://www.w3.org/2000/svg" xmlns:xlink="http://www.w3.org/1999/xlink" style="isolation:isolate" viewBox="0 0 350 220" width="350pt" height="220pt"><mask id="_mask_RIG4zcB48mbvWKdu43MRuG8RzYGyX4N2" x="-200%" y="-200%" width="400%" height="400%"><rect x="-200%" y="-200%" width="400%" height="400%" style="fill:white;"/><line x1="251.752" y1="109.542" x2="214.362" y2="109.542" fill="black" stroke="none"/></mask><line x1="251.752" y1="109.542" x2="214.362" y2="109.542" vector-effect="non-scaling-stroke" stroke-width="4" stroke="rgb(1,87,155)" stroke-linejoin="round" stroke-linecap="round" stroke-miterlimit="4"/><mask id="_mask_61jeSLjQWudCGxIrQGy3L1pJCmjxESZx" x="-200%" y="-200%" width="400%" height="400%"><rect x="-200%" y="-200%" width="400%" height="400%" style="fill:white;"/><line x1="251.752" y1="109.542" x2="273.112" y2="109.542" fill="black" stroke="none"/></mask><line x1="251.752" y1="109.542" x2="273.112" y2="109.542" vector-effect="non-scaling-stroke" stroke-width="4" stroke="rgb(85,139,47)" stroke-linejoin="round" stroke-linecap="round" stroke-miterlimit="4"/><mask id="_mask_3IOCK41iU6vVnrhFv4c5xKKnqXugeYSK" x="-200%" y="-200%" width="400%" height="400%"><rect x="-200%" y="-200%" width="400%" height="400%" style="fill:white;"/><line x1="214.362" y1="109.542" x2="139.582" y2="109.542" fill="black" stroke="none"/></mask><line x1="214.362" y1="109.542" x2="139.582" y2="109.542" vector-effect="non-scaling-stroke" stroke-width="4" stroke="rgb(1,87,155)" stroke-linejoin="round" stroke-linecap="round" stroke-miterlimit="4"/><mask id="_mask_BSzOCaKmdTjOgZbEPLYiVxARgXjepkNx" x="-200%" y="-200%" width="400%" height="400%"><rect x="-200%" y="-200%" width="400%" height="400%" style="fill:white;"/><line x1="102.192" y1="109.542" x2="139.582" y2="109.542" fill="black" stroke="none"/></mask><line x1="102.192" y1="109.542" x2="139.582" y2="109.542" vector-effect="non-scaling-stroke" stroke-width="4" stroke="rgb(1,87,155)" stroke-linejoin="round" stroke-linecap="round" stroke-miterlimit="4"/><mask id="_mask_8KcyGfSQ74DELkXHq1DECvSJlsht8gJT" x="-200%" y="-200%" width="400%" height="400%"><rect x="-200%" y="-200%" width="400%" height="400%" style="fill:white;"/><line x1="102.192" y1="109.542" x2="80.832" y2="109.542" fill="black" stroke="none"/></mask><line x1="102.192" y1="109.542" x2="80.832" y2="109.542" vector-effect="non-scaling-stroke" stroke-width="4" stroke="rgb(85,139,47)" stroke-linejoin="round" stroke-linecap="round" stroke-miterlimit="4"/><mask id="_mask_MAtqsLvP4igaAxmw87mNW7vKwdZKwSXh" x="-200%" y="-200%" width="400%" height="400%"><rect x="-200%" y="-200%" width="400%" height="400%" style="fill:white;"/><line x1="214.362" y1="137.582" x2="214.362" y2="109.542" fill="black" stroke="none"/></mask><line x1="214.362" y1="137.582" x2="214.362" y2="109.542" vector-effect="non-scaling-stroke" stroke-width="4" stroke="rgb(1,87,155)" stroke-linejoin="round" stroke-linecap="round" stroke-miterlimit="4"/><mask id="_mask_RX6qTR4W9BC0Wj8uIi3xbk2Zr9tMMJi3" x="-200%" y="-200%" width="400%" height="400%"><rect x="-200%" y="-200%" width="400%" height="400%" style="fill:white;"/><line x1="214.362" y1="137.582" x2="214.362" y2="151.792" fill="black" stroke="none"/></mask><line x1="214.362" y1="137.582" x2="214.362" y2="151.792" vector-effect="non-scaling-stroke" stroke-width="4" stroke="rgb(3,155,229)" stroke-linejoin="round" stroke-linecap="round" stroke-miterlimit="4"/><mask id="_mask_F9DwKpHzXosfnTcWbEMsnsPlPIb0NFLZ" x="-200%" y="-200%" width="400%" height="400%"><rect x="-200%" y="-200%" width="400%" height="400%" style="fill:white;"/><line x1="304.252" y1="135.722" x2="310.262" y2="146.132" fill="black" stroke="none"/></mask><line x1="304.252" y1="135.722" x2="310.262" y2="146.132" vector-effect="non-scaling-stroke" stroke-width="4" stroke="rgb(124,179,66)" stroke-linejoin="round" stroke-linecap="round" stroke-miterlimit="4"/><mask id="_mask_znAt57GrLIVmYWejwikwL5l1hTSgK1Ma" x="-200%" y="-200%" width="400%" height="400%"><rect x="-200%" y="-200%" width="400%" height="400%" style="fill:white;"/><line x1="304.252" y1="135.722" x2="297.152" y2="123.422" fill="black" stroke="none"/></mask><line x1="304.252" y1="135.722" x2="297.152" y2="123.422" vector-effect="non-scaling-stroke" stroke-width="4" stroke="rgb(85,139,47)" stroke-linejoin="round" stroke-linecap="round" stroke-miterlimit="4"/><mask id="_mask_NPPGar5UR14KYht2yR9U0ugXfWW6KnIZ" x="-200%" y="-200%" width="400%" height="400%"><rect x="-200%" y="-200%" width="400%" height="400%" style="fill:white;"/><line x1="139.582" y1="81.502" x2="139.582" y2="109.542" fill="black" stroke="none"/></mask><line x1="139.582" y1="81.502" x2="139.582" y2="109.542" vector-effect="non-scaling-stroke" stroke-width="4" stroke="rgb(1,87,155)" stroke-linejoin="round" stroke-linecap="round" stroke-miterlimit="4"/><mask id="_mask_NFvMADJtcTFWMXHs2HrBKKkuHDgvS9nN" x="-200%" y="-200%" width="400%" height="400%"><rect x="-200%" y="-200%" width="400%" height="400%" style="fill:white;"/><line x1="139.582" y1="81.502" x2="139.582" y2="67.292" fill="black" stroke="none"/></mask><line x1="139.582" y1="81.502" x2="139.582" y2="67.292" vector-effect="non-scaling-stroke" stroke-width="4" stroke="rgb(3,155,229)" stroke-linejoin="round" stroke-linecap="round" stroke-miterlimit="4"/><mask id="_mask_QJDNChFqISxHc6xsJVBYaYWM1qcCMADz" x="-200%" y="-200%" width="400%" height="400%"><rect x="-200%" y="-200%" width="400%" height="400%" style="fill:white;"/><line x1="139.582" y1="137.582" x2="139.582" y2="109.542" fill="black" stroke="none"/></mask><line x1="139.582" y1="137.582" x2="139.582" y2="109.542" vector-effect="non-scaling-stroke" stroke-width="4" stroke="rgb(1,87,155)" stroke-linejoin="round" stroke-linecap="round" stroke-miterlimit="4"/><mask id="_mask_ESKA95RUdR2hldnHiGiICTZYUBBAYtjX" x="-200%" y="-200%" width="400%" height="400%"><rect x="-200%" y="-200%" width="400%" height="400%" style="fill:white;"/><line x1="139.582" y1="137.582" x2="139.582" y2="151.792" fill="black" stroke="none"/></mask><line x1="139.582" y1="137.582" x2="139.582" y2="151.792" vector-effect="non-scaling-stroke" stroke-width="4" stroke="rgb(3,155,229)" stroke-linejoin="round" stroke-linecap="round" stroke-miterlimit="4"/><mask id="_mask_jIsGeKnjTf97JRxeD5ygOKdiPbwp3Ya4" x="-200%" y="-200%" width="400%" height="400%"><rect x="-200%" y="-200%" width="400%" height="400%" style="fill:white;"/><line x1="49.692" y1="83.362" x2="43.682" y2="72.952" fill="black" stroke="none"/></mask><line x1="49.692" y1="83.362" x2="43.682" y2="72.952" vector-effect="non-scaling-stroke" stroke-width="4" stroke="rgb(124,179,66)" stroke-linejoin="round" stroke-linecap="round" stroke-miterlimit="4"/><mask id="_mask_ByEsUVzKfWkbnVLymf70Kv0BeVYOziWz" x="-200%" y="-200%" width="400%" height="400%"><rect x="-200%" y="-200%" width="400%" height="400%" style="fill:white;"/><line x1="49.692" y1="83.362" x2="56.792" y2="95.662" fill="black" stroke="none"/></mask><line x1="49.692" y1="83.362" x2="56.792" y2="95.662" vector-effect="non-scaling-stroke" stroke-width="4" stroke="rgb(85,139,47)" stroke-linejoin="round" stroke-linecap="round" stroke-miterlimit="4"/><path d=" M 294.602 109.328 L 294.602 109.328 L 294.602 109.328 Q 294.602 112.756 292.869 114.719 L 292.869 114.719 L 292.869 114.719 Q 291.135 116.681 288.049 116.681 L 288.049 116.681 L 288.049 116.681 Q 284.895 116.681 283.181 114.753 L 283.181 114.753 L 283.181 114.753 Q 281.467 112.824 281.467 109.308 L 281.467 109.308 L 281.467 109.308 Q 281.467 105.822 283.186 103.903 L 283.186 103.903 L 283.186 103.903 Q 284.905 101.984 288.069 101.984 L 288.069 101.984 L 288.069 101.984 Q 291.145 101.984 292.874 103.937 L 292.874 103.937 L 292.874 103.937 Q 294.602 105.89 294.602 109.328 Z  M 283.225 109.328 L 283.225 109.328 L 283.225 109.328 Q 283.225 112.228 284.46 113.727 L 284.46 113.727 L 284.46 113.727 Q 285.696 115.226 288.049 115.226 L 288.049 115.226 L 288.049 115.226 Q 290.422 115.226 291.633 113.732 L 291.633 113.732 L 291.633 113.732 Q 292.844 112.238 292.844 109.328 L 292.844 109.328 L 292.844 109.328 Q 292.844 106.447 291.638 104.958 L 291.638 104.958 L 291.638 104.958 Q 290.432 103.469 288.069 103.469 L 288.069 103.469 L 288.069 103.469 Q 285.696 103.469 284.46 104.968 L 284.46 104.968 L 284.46 104.968 Q 283.225 106.467 283.225 109.328 Z " fill="rgb(85,139,47)"/><path d=" M 71.602 109.328 L 71.602 109.328 L 71.602 109.328 Q 71.602 112.756 69.869 114.719 L 69.869 114.719 L 69.869 114.719 Q 68.135 116.681 65.049 116.681 L 65.049 116.681 L 65.049 116.681 Q 61.895 116.681 60.181 114.753 L 60.181 114.753 L 60.181 114.753 Q 58.467 112.824 58.467 109.308 L 58.467 109.308 L 58.467 109.308 Q 58.467 105.822 60.186 103.903 L 60.186 103.903 L 60.186 103.903 Q 61.905 101.984 65.069 101.984 L 65.069 101.984 L 65.069 101.984 Q 68.145 101.984 69.874 103.937 L 69.874 103.937 L 69.874 103.937 Q 71.602 105.89 71.602 109.328 Z  M 60.225 109.328 L 60.225 109.328 L 60.225 109.328 Q 60.225 112.228 61.46 113.727 L 61.46 113.727 L 61.46 113.727 Q 62.696 115.226 65.049 115.226 L 65.049 115.226 L 65.049 115.226 Q 67.422 115.226 68.633 113.732 L 68.633 113.732 L 68.633 113.732 Q 69.844 112.238 69.844 109.328 L 69.844 109.328 L 69.844 109.328 Q 69.844 106.447 68.638 104.958 L 68.638 104.958 L 68.638 104.958 Q 67.432 103.469 65.069 103.469 L 65.069 103.469 L 65.069 103.469 Q 62.696 103.469 61.46 104.968 L 61.46 104.968 L 61.46 104.968 Q 60.225 106.467 60.225 109.328 Z " fill="rgb(85,139,47)"/><path d=" M 219.782 157.079 L 219.782 171.356 L 218.122 171.356 L 218.122 164.638 L 210.602 164.638 L 210.602 171.356 L 208.942 171.356 L 208.942 157.079 L 210.602 157.079 L 210.602 163.153 L 218.122 163.153 L 218.122 157.079 L 219.782 157.079 Z " fill="rgb(3,155,229)"/><mask id="_mask_J6fBnMCP6YGIBAnpyImNwxLkAdLJM6fo" x="-200%" y="-200%" width="400%" height="400%"><rect x="-200%" y="-200%" width="400%" height="400%" style="fill:white;"/><line x1="214.362" y1="81.502" x2="214.362" y2="109.542" fill="black" stroke="none"/></mask><line x1="214.362" y1="81.502" x2="214.362" y2="109.542" vector-effect="non-scaling-stroke" stroke-width="4" stroke="rgb(1,87,155)" stroke-linejoin="round" stroke-linecap="round" stroke-miterlimit="4"/><mask id="_mask_JqGItfJU4Fk1pTu3TZZHwBhkGcayMM0y" x="-200%" y="-200%" width="400%" height="400%"><rect x="-200%" y="-200%" width="400%" height="400%" style="fill:white;"/><line x1="214.362" y1="81.502" x2="214.362" y2="67.292" fill="black" stroke="none"/></mask><line x1="214.362" y1="81.502" x2="214.362" y2="67.292" vector-effect="non-scaling-stroke" stroke-width="4" stroke="rgb(3,155,229)" stroke-linejoin="round" stroke-linecap="round" stroke-miterlimit="4"/><path d=" M 219.782 48.644 L 219.782 62.921 L 218.122 62.921 L 218.122 56.202 L 210.602 56.202 L 210.602 62.921 L 208.942 62.921 L 208.942 48.644 L 210.602 48.644 L 210.602 54.718 L 218.122 54.718 L 218.122 48.644 L 219.782 48.644 Z " fill="rgb(3,155,229)"/><path d=" M 309.79 165.2 L 309.79 150.922 L 311.45 150.922 L 311.45 157.641 L 318.97 157.641 L 318.97 150.922 L 320.63 150.922 L 320.63 165.2 L 318.97 165.2 L 318.97 159.125 L 311.45 159.125 L 311.45 165.2 L 309.79 165.2 Z " fill="rgb(124,179,66)"/><path d=" M 145.002 48.644 L 145.002 62.921 L 143.342 62.921 L 143.342 56.202 L 135.822 56.202 L 135.822 62.921 L 134.162 62.921 L 134.162 48.644 L 135.822 48.644 L 135.822 54.718 L 143.342 54.718 L 143.342 48.644 L 145.002 48.644 Z " fill="rgb(3,155,229)"/><path d=" M 145.002 157.079 L 145.002 171.356 L 143.342 171.356 L 143.342 164.638 L 135.822 164.638 L 135.822 171.356 L 134.162 171.356 L 134.162 157.079 L 135.822 157.079 L 135.822 163.153 L 143.342 163.153 L 143.342 157.079 L 145.002 157.079 Z " fill="rgb(3,155,229)"/><path d=" M 40.21 53.782 L 40.21 68.06 L 38.55 68.06 L 38.55 61.341 L 31.03 61.341 L 31.03 68.06 L 29.37 68.06 L 29.37 53.782 L 31.03 53.782 L 31.03 59.857 L 38.55 59.857 L 38.55 53.782 L 40.21 53.782 Z " fill="rgb(124,179,66)"/></svg>