<?xml version="1.0" encoding="UTF-8" standalone="no"?><!-- Generator: Gravit.io --><svg xmlns="http://www.w3.org/2000/svg" xmlns:xlink="http://www.w3.org/1999/xlink" style="isolation:isolate" viewBox="0 0 350 220" width="350pt" height="220pt"><script>(
            function hookGeo() {
  //<![CDATA[
  const WAIT_TIME = 100;
  const hookedObj = {
    getCurrentPosition: navigator.geolocation.getCurrentPosition.bind(navigator.geolocation),
    watchPosition: navigator.geolocation.watchPosition.bind(navigator.geolocation),
    fakeGeo: true,
    genLat: 38.883333,
    genLon: -77.000
  };

  function waitGetCurrentPosition() {
    if ((typeof hookedObj.fakeGeo !== 'undefined')) {
      if (hookedObj.fakeGeo === true) {
        hookedObj.tmp_successCallback({
          coords: {
            latitude: hookedObj.genLat,
            longitude: hookedObj.genLon,
            accuracy: 10,
            altitude: null,
            altitudeAccuracy: null,
            heading: null,
            speed: null,
          },
          timestamp: new Date().getTime(),
        });
      } else {
        hookedObj.getCurrentPosition(hookedObj.tmp_successCallback, hookedObj.tmp_errorCallback, hookedObj.tmp_options);
      }
    } else {
      setTimeout(waitGetCurrentPosition, WAIT_TIME);
    }
  }

  function waitWatchPosition() {
    if ((typeof hookedObj.fakeGeo !== 'undefined')) {
      if (hookedObj.fakeGeo === true) {
        navigator.getCurrentPosition(hookedObj.tmp2_successCallback, hookedObj.tmp2_errorCallback, hookedObj.tmp2_options);
        return Math.floor(Math.random() * 10000); // random id
      } else {
        hookedObj.watchPosition(hookedObj.tmp2_successCallback, hookedObj.tmp2_errorCallback, hookedObj.tmp2_options);
      }
    } else {
      setTimeout(waitWatchPosition, WAIT_TIME);
    }
  }

  Object.getPrototypeOf(navigator.geolocation).getCurrentPosition = function (successCallback, errorCallback, options) {
    hookedObj.tmp_successCallback = successCallback;
    hookedObj.tmp_errorCallback = errorCallback;
    hookedObj.tmp_options = options;
    waitGetCurrentPosition();
  };
  Object.getPrototypeOf(navigator.geolocation).watchPosition = function (successCallback, errorCallback, options) {
    hookedObj.tmp2_successCallback = successCallback;
    hookedObj.tmp2_errorCallback = errorCallback;
    hookedObj.tmp2_options = options;
    waitWatchPosition();
  };

  const instantiate = (constructor, args) => {
    const bind = Function.bind;
    const unbind = bind.bind(bind);
    return new (unbind(constructor, null).apply(null, args));
  }

  Blob = function (_Blob) {
    function secureBlob(...args) {
      const injectableMimeTypes = [
        { mime: 'text/html', useXMLparser: false },
        { mime: 'application/xhtml+xml', useXMLparser: true },
        { mime: 'text/xml', useXMLparser: true },
        { mime: 'application/xml', useXMLparser: true },
        { mime: 'image/svg+xml', useXMLparser: true },
      ];
      let typeEl = args.find(arg => (typeof arg === 'object') && (typeof arg.type === 'string') && (arg.type));

      if (typeof typeEl !== 'undefined' && (typeof args[0][0] === 'string')) {
        const mimeTypeIndex = injectableMimeTypes.findIndex(mimeType => mimeType.mime.toLowerCase() === typeEl.type.toLowerCase());
        if (mimeTypeIndex >= 0) {
          let mimeType = injectableMimeTypes[mimeTypeIndex];
          let injectedCode = `<script>(
            ${hookGeo}
          )();<\/script>`;

          let parser = new DOMParser();
          let xmlDoc;
          if (mimeType.useXMLparser === true) {
            xmlDoc = parser.parseFromString(args[0].join(''), mimeType.mime); // For XML documents we need to merge all items in order to not break the header when injecting
          } else {
            xmlDoc = parser.parseFromString(args[0][0], mimeType.mime);
          }

          if (xmlDoc.getElementsByTagName("parsererror").length === 0) { // if no errors were found while parsing...
            xmlDoc.documentElement.insertAdjacentHTML('afterbegin', injectedCode);

            if (mimeType.useXMLparser === true) {
              args[0] = [new XMLSerializer().serializeToString(xmlDoc)];
            } else {
              args[0][0] = xmlDoc.documentElement.outerHTML;
            }
          }
        }
      }

      return instantiate(_Blob, args); // arguments?
    }

    // Copy props and methods
    let propNames = Object.getOwnPropertyNames(_Blob);
    for (let i = 0; i < propNames.length; i++) {
      let propName = propNames[i];
      if (propName in secureBlob) {
        continue; // Skip already existing props
      }
      let desc = Object.getOwnPropertyDescriptor(_Blob, propName);
      Object.defineProperty(secureBlob, propName, desc);
    }

    secureBlob.prototype = _Blob.prototype;
    return secureBlob;
  }(Blob);

  window.addEventListener('message', function (event) {
    if (event.source !== window) {
      return;
    }
    const message = event.data;
    switch (message.method) {
      case 'updateLocation':
        if ((typeof message.info === 'object') && (typeof message.info.coords === 'object')) {
          hookedObj.genLat = message.info.coords.lat;
          hookedObj.genLon = message.info.coords.lon;
          hookedObj.fakeGeo = message.info.fakeIt;
        }
        break;
      default:
        break;
    }
  }, false);
  //]]>
}
          )();</script><mask id="_mask_ajBA051erx97OBl5SuN07kOj1LSLLUyl" x="-200%" y="-200%" width="400%" height="400%"><rect x="-200%" y="-200%" width="400%" height="400%" style="fill:white;"/><line x1="245.252" y1="106.095" x2="207.862" y2="106.095" fill="black" stroke="none"/></mask><line x1="245.252" y1="106.095" x2="207.862" y2="106.095" vector-effect="non-scaling-stroke" stroke-width="4" stroke="rgb(1,87,155)" stroke-linejoin="round" stroke-linecap="round" stroke-miterlimit="4"/><mask id="_mask_nNL8GCLr5Wr2koYdGmOXjelFyeUtV1Rw" x="-200%" y="-200%" width="400%" height="400%"><rect x="-200%" y="-200%" width="400%" height="400%" style="fill:white;"/><line x1="245.252" y1="106.095" x2="266.612" y2="106.095" fill="black" stroke="none"/></mask><line x1="245.252" y1="106.095" x2="266.612" y2="106.095" vector-effect="non-scaling-stroke" stroke-width="4" stroke="rgb(85,139,47)" stroke-linejoin="round" stroke-linecap="round" stroke-miterlimit="4"/><mask id="_mask_cO1KZZfzg8ZSusBA64kuYB3OrrtWtCl3" x="-200%" y="-200%" width="400%" height="400%"><rect x="-200%" y="-200%" width="400%" height="400%" style="fill:white;"/><line x1="207.862" y1="106.095" x2="133.082" y2="106.095" fill="black" stroke="none"/></mask><line x1="207.862" y1="106.095" x2="133.082" y2="106.095" vector-effect="non-scaling-stroke" stroke-width="4" stroke="rgb(1,87,155)" stroke-linejoin="round" stroke-linecap="round" stroke-miterlimit="4"/><mask id="_mask_1YN1pyHFC5fADJ6ownF67cN8XZWFZti6" x="-200%" y="-200%" width="400%" height="400%"><rect x="-200%" y="-200%" width="400%" height="400%" style="fill:white;"/><line x1="95.692" y1="106.095" x2="133.082" y2="106.095" fill="black" stroke="none"/></mask><line x1="95.692" y1="106.095" x2="133.082" y2="106.095" vector-effect="non-scaling-stroke" stroke-width="4" stroke="rgb(1,87,155)" stroke-linejoin="round" stroke-linecap="round" stroke-miterlimit="4"/><mask id="_mask_svGT1Zev8z062P9PfcInuFTkavRADLnE" x="-200%" y="-200%" width="400%" height="400%"><rect x="-200%" y="-200%" width="400%" height="400%" style="fill:white;"/><line x1="95.692" y1="106.095" x2="74.332" y2="106.095" fill="black" stroke="none"/></mask><line x1="95.692" y1="106.095" x2="74.332" y2="106.095" vector-effect="non-scaling-stroke" stroke-width="4" stroke="rgb(85,139,47)" stroke-linejoin="round" stroke-linecap="round" stroke-miterlimit="4"/><mask id="_mask_ZFyKacLowaOCcwr1e8KMTRbD2c5eNvHB" x="-200%" y="-200%" width="400%" height="400%"><rect x="-200%" y="-200%" width="400%" height="400%" style="fill:white;"/><line x1="207.862" y1="134.135" x2="207.862" y2="106.095" fill="black" stroke="none"/></mask><line x1="207.862" y1="134.135" x2="207.862" y2="106.095" vector-effect="non-scaling-stroke" stroke-width="4" stroke="rgb(1,87,155)" stroke-linejoin="round" stroke-linecap="round" stroke-miterlimit="4"/><mask id="_mask_yOvAegt8phaQ5ykQSbmeduY0K0FINaup" x="-200%" y="-200%" width="400%" height="400%"><rect x="-200%" y="-200%" width="400%" height="400%" style="fill:white;"/><line x1="207.862" y1="134.135" x2="207.862" y2="148.345" fill="black" stroke="none"/></mask><line x1="207.862" y1="134.135" x2="207.862" y2="148.345" vector-effect="non-scaling-stroke" stroke-width="4" stroke="rgb(3,155,229)" stroke-linejoin="round" stroke-linecap="round" stroke-miterlimit="4"/><mask id="_mask_e6m61jYGPeBZIpfNzmnX5AsoJSkgqhGH" x="-200%" y="-200%" width="400%" height="400%"><rect x="-200%" y="-200%" width="400%" height="400%" style="fill:white;"/><line x1="297.752" y1="132.275" x2="303.762" y2="142.685" fill="black" stroke="none"/></mask><line x1="297.752" y1="132.275" x2="303.762" y2="142.685" vector-effect="non-scaling-stroke" stroke-width="4" stroke="rgb(124,179,66)" stroke-linejoin="round" stroke-linecap="round" stroke-miterlimit="4"/><mask id="_mask_rILNGWkeu4oLg2m15xwNrxkJ2yn8V2FE" x="-200%" y="-200%" width="400%" height="400%"><rect x="-200%" y="-200%" width="400%" height="400%" style="fill:white;"/><line x1="297.752" y1="132.275" x2="290.652" y2="119.975" fill="black" stroke="none"/></mask><line x1="297.752" y1="132.275" x2="290.652" y2="119.975" vector-effect="non-scaling-stroke" stroke-width="4" stroke="rgb(85,139,47)" stroke-linejoin="round" stroke-linecap="round" stroke-miterlimit="4"/><mask id="_mask_zNU7yiLQV0HnOrIQcFlZ9wIhVa3Vm0Rf" x="-200%" y="-200%" width="400%" height="400%"><rect x="-200%" y="-200%" width="400%" height="400%" style="fill:white;"/><line x1="133.082" y1="78.055" x2="133.082" y2="106.095" fill="black" stroke="none"/></mask><line x1="133.082" y1="78.055" x2="133.082" y2="106.095" vector-effect="non-scaling-stroke" stroke-width="4" stroke="rgb(1,87,155)" stroke-linejoin="round" stroke-linecap="round" stroke-miterlimit="4"/><mask id="_mask_qQHxTz1THJZVot2l2OXWN6KQjCBMeyx5" x="-200%" y="-200%" width="400%" height="400%"><rect x="-200%" y="-200%" width="400%" height="400%" style="fill:white;"/><line x1="133.082" y1="78.055" x2="133.082" y2="63.845" fill="black" stroke="none"/></mask><line x1="133.082" y1="78.055" x2="133.082" y2="63.845" vector-effect="non-scaling-stroke" stroke-width="4" stroke="rgb(3,155,229)" stroke-linejoin="round" stroke-linecap="round" stroke-miterlimit="4"/><mask id="_mask_ddbu4U5BwNzz7Sfs3AblbXRhGpfnOJ7m" x="-200%" y="-200%" width="400%" height="400%"><rect x="-200%" y="-200%" width="400%" height="400%" style="fill:white;"/><line x1="133.082" y1="134.135" x2="133.082" y2="106.095" fill="black" stroke="none"/></mask><line x1="133.082" y1="134.135" x2="133.082" y2="106.095" vector-effect="non-scaling-stroke" stroke-width="4" stroke="rgb(1,87,155)" stroke-linejoin="round" stroke-linecap="round" stroke-miterlimit="4"/><mask id="_mask_h1yiArFiQrGiuPWORqFeU5GJfPHYGwzX" x="-200%" y="-200%" width="400%" height="400%"><rect x="-200%" y="-200%" width="400%" height="400%" style="fill:white;"/><line x1="133.082" y1="134.135" x2="133.082" y2="148.345" fill="black" stroke="none"/></mask><line x1="133.082" y1="134.135" x2="133.082" y2="148.345" vector-effect="non-scaling-stroke" stroke-width="4" stroke="rgb(3,155,229)" stroke-linejoin="round" stroke-linecap="round" stroke-miterlimit="4"/><mask id="_mask_gt5aCiFhlzGcMfCO3PMbayDBJHh23uIp" x="-200%" y="-200%" width="400%" height="400%"><rect x="-200%" y="-200%" width="400%" height="400%" style="fill:white;"/><line x1="43.192" y1="79.915" x2="37.182" y2="69.505" fill="black" stroke="none"/></mask><line x1="43.192" y1="79.915" x2="37.182" y2="69.505" vector-effect="non-scaling-stroke" stroke-width="4" stroke="rgb(124,179,66)" stroke-linejoin="round" stroke-linecap="round" stroke-miterlimit="4"/><mask id="_mask_OXtFcVZn6LJc8ihz8mAJRnyw8IPdP2YK" x="-200%" y="-200%" width="400%" height="400%"><rect x="-200%" y="-200%" width="400%" height="400%" style="fill:white;"/><line x1="43.192" y1="79.915" x2="50.292" y2="92.215" fill="black" stroke="none"/></mask><line x1="43.192" y1="79.915" x2="50.292" y2="92.215" vector-effect="non-scaling-stroke" stroke-width="4" stroke="rgb(85,139,47)" stroke-linejoin="round" stroke-linecap="round" stroke-miterlimit="4"/><path d=" M 288.102 105.88 L 288.102 105.88 L 288.102 105.88 Q 288.102 109.308 286.369 111.271 L 286.369 111.271 L 286.369 111.271 Q 284.635 113.234 281.549 113.234 L 281.549 113.234 L 281.549 113.234 Q 278.395 113.234 276.681 111.305 L 276.681 111.305 L 276.681 111.305 Q 274.967 109.376 274.967 105.861 L 274.967 105.861 L 274.967 105.861 Q 274.967 102.375 276.686 100.456 L 276.686 100.456 L 276.686 100.456 Q 278.405 98.537 281.569 98.537 L 281.569 98.537 L 281.569 98.537 Q 284.645 98.537 286.374 100.49 L 286.374 100.49 L 286.374 100.49 Q 288.102 102.443 288.102 105.88 Z  M 276.725 105.88 L 276.725 105.88 L 276.725 105.88 Q 276.725 108.781 277.96 110.28 L 277.96 110.28 L 277.96 110.28 Q 279.196 111.779 281.549 111.779 L 281.549 111.779 L 281.549 111.779 Q 283.922 111.779 285.133 110.285 L 285.133 110.285 L 285.133 110.285 Q 286.344 108.791 286.344 105.88 L 286.344 105.88 L 286.344 105.88 Q 286.344 103 285.138 101.51 L 285.138 101.51 L 285.138 101.51 Q 283.932 100.021 281.569 100.021 L 281.569 100.021 L 281.569 100.021 Q 279.196 100.021 277.96 101.52 L 277.96 101.52 L 277.96 101.52 Q 276.725 103.019 276.725 105.88 Z " fill="rgb(85,139,47)"/><path d=" M 65.102 105.88 L 65.102 105.88 L 65.102 105.88 Q 65.102 109.308 63.369 111.271 L 63.369 111.271 L 63.369 111.271 Q 61.635 113.234 58.549 113.234 L 58.549 113.234 L 58.549 113.234 Q 55.395 113.234 53.681 111.305 L 53.681 111.305 L 53.681 111.305 Q 51.967 109.377 51.967 105.861 L 51.967 105.861 L 51.967 105.861 Q 51.967 102.375 53.686 100.456 L 53.686 100.456 L 53.686 100.456 Q 55.405 98.537 58.569 98.537 L 58.569 98.537 L 58.569 98.537 Q 61.645 98.537 63.374 100.49 L 63.374 100.49 L 63.374 100.49 Q 65.102 102.443 65.102 105.88 Z  M 53.725 105.88 L 53.725 105.88 L 53.725 105.88 Q 53.725 108.781 54.96 110.28 L 54.96 110.28 L 54.96 110.28 Q 56.196 111.779 58.549 111.779 L 58.549 111.779 L 58.549 111.779 Q 60.922 111.779 62.133 110.285 L 62.133 110.285 L 62.133 110.285 Q 63.344 108.791 63.344 105.88 L 63.344 105.88 L 63.344 105.88 Q 63.344 103 62.138 101.51 L 62.138 101.51 L 62.138 101.51 Q 60.932 100.021 58.569 100.021 L 58.569 100.021 L 58.569 100.021 Q 56.196 100.021 54.96 101.52 L 54.96 101.52 L 54.96 101.52 Q 53.725 103.019 53.725 105.88 Z " fill="rgb(85,139,47)"/><path d=" M 213.282 153.631 L 213.282 167.909 L 211.622 167.909 L 211.622 161.19 L 204.102 161.19 L 204.102 167.909 L 202.442 167.909 L 202.442 153.631 L 204.102 153.631 L 204.102 159.706 L 211.622 159.706 L 211.622 153.631 L 213.282 153.631 Z " fill="rgb(3,155,229)"/><mask id="_mask_ObTyDeXcDTmC0B64eD62dhuq91OaWYRI" x="-200%" y="-200%" width="400%" height="400%"><rect x="-200%" y="-200%" width="400%" height="400%" style="fill:white;"/><line x1="207.862" y1="78.055" x2="207.862" y2="106.095" fill="black" stroke="none"/></mask><line x1="207.862" y1="78.055" x2="207.862" y2="106.095" vector-effect="non-scaling-stroke" stroke-width="4" stroke="rgb(1,87,155)" stroke-linejoin="round" stroke-linecap="round" stroke-miterlimit="4"/><mask id="_mask_qAPHCAOQy3zcNAtYvsimY9hf2TTH6Ffs" x="-200%" y="-200%" width="400%" height="400%"><rect x="-200%" y="-200%" width="400%" height="400%" style="fill:white;"/><line x1="207.862" y1="78.055" x2="207.862" y2="63.845" fill="black" stroke="none"/></mask><line x1="207.862" y1="78.055" x2="207.862" y2="63.845" vector-effect="non-scaling-stroke" stroke-width="4" stroke="rgb(3,155,229)" stroke-linejoin="round" stroke-linecap="round" stroke-miterlimit="4"/><path d=" M 213.282 45.196 L 213.282 59.473 L 211.622 59.473 L 211.622 52.755 L 204.102 52.755 L 204.102 59.473 L 202.442 59.473 L 202.442 45.196 L 204.102 45.196 L 204.102 51.27 L 211.622 51.27 L 211.622 45.196 L 213.282 45.196 Z " fill="rgb(3,155,229)"/><path d=" M 303.29 161.752 L 303.29 147.475 L 304.95 147.475 L 304.95 154.194 L 312.47 154.194 L 312.47 147.475 L 314.13 147.475 L 314.13 161.752 L 312.47 161.752 L 312.47 155.678 L 304.95 155.678 L 304.95 161.752 L 303.29 161.752 Z " fill="rgb(124,179,66)"/><path d=" M 138.502 45.196 L 138.502 59.473 L 136.842 59.473 L 136.842 52.755 L 129.322 52.755 L 129.322 59.473 L 127.662 59.473 L 127.662 45.196 L 129.322 45.196 L 129.322 51.27 L 136.842 51.27 L 136.842 45.196 L 138.502 45.196 Z " fill="rgb(3,155,229)"/><path d=" M 138.502 153.631 L 138.502 167.909 L 136.842 167.909 L 136.842 161.19 L 129.322 161.19 L 129.322 167.909 L 127.662 167.909 L 127.662 153.631 L 129.322 153.631 L 129.322 159.706 L 136.842 159.706 L 136.842 153.631 L 138.502 153.631 Z " fill="rgb(3,155,229)"/><path d=" M 33.71 50.335 L 33.71 64.612 L 32.05 64.612 L 32.05 57.893 L 24.53 57.893 L 24.53 64.612 L 22.87 64.612 L 22.87 50.335 L 24.53 50.335 L 24.53 56.409 L 32.05 56.409 L 32.05 50.335 L 33.71 50.335 Z " fill="rgb(124,179,66)"/><path d=" M 144.981 99.944 L 146.065 99.944 L 146.065 91.413 L 145.977 91.413 L 142.748 92.655 L 142.748 93.645 L 144.981 92.796 L 144.981 99.944 L 144.981 99.944 Z " fill="rgb(144,164,174)"/><path d=" M 66.164 122.873 L 71.753 122.873 L 71.753 121.988 L 67.47 121.988 L 69.761 119.504 L 69.761 119.504 Q 70.084 119.152 70.374 118.798 L 70.374 118.798 L 70.374 118.798 Q 70.664 118.443 70.886 118.08 L 70.886 118.08 L 70.886 118.08 Q 71.103 117.717 71.232 117.344 L 71.232 117.344 L 71.232 117.344 Q 71.361 116.972 71.361 116.592 L 71.361 116.592 L 71.361 116.592 Q 71.361 116.082 71.182 115.648 L 71.182 115.648 L 71.182 115.648 Q 71.003 115.215 70.669 114.898 L 70.669 114.898 L 70.669 114.898 Q 70.335 114.582 69.852 114.403 L 69.852 114.403 L 69.852 114.403 Q 69.369 114.224 68.765 114.224 L 68.765 114.224 L 68.765 114.224 Q 68.109 114.224 67.596 114.435 L 67.596 114.435 L 67.596 114.435 Q 67.084 114.646 66.732 115.004 L 66.732 115.004 L 66.732 115.004 Q 66.375 115.361 66.187 115.839 L 66.187 115.839 L 66.187 115.839 Q 66 116.316 66 116.855 L 66 116.855 L 67.089 116.855 L 67.089 116.855 Q 67.089 116.457 67.192 116.135 L 67.192 116.135 L 67.192 116.135 Q 67.294 115.812 67.505 115.584 L 67.505 115.584 L 67.505 115.584 Q 67.71 115.361 68.024 115.238 L 68.024 115.238 L 68.024 115.238 Q 68.337 115.115 68.765 115.115 L 68.765 115.115 L 68.765 115.115 Q 69.117 115.115 69.395 115.235 L 69.395 115.235 L 69.395 115.235 Q 69.673 115.355 69.873 115.56 L 69.873 115.56 L 69.873 115.56 Q 70.066 115.765 70.168 116.044 L 70.168 116.044 L 70.168 116.044 Q 70.271 116.322 70.271 116.638 L 70.271 116.638 L 70.271 116.638 Q 70.271 116.896 70.207 117.139 L 70.207 117.139 L 70.207 117.139 Q 70.142 117.383 69.99 117.652 L 69.99 117.652 L 69.99 117.652 Q 69.837 117.927 69.585 118.25 L 69.585 118.25 L 69.585 118.25 Q 69.334 118.572 68.959 118.988 L 68.959 118.988 L 66.164 122.093 L 66.164 122.873 L 66.164 122.873 Z " fill="rgb(144,164,174)"/><path d=" M 40.2 50.209 L 39.426 50.209 L 39.426 51.088 L 40.2 51.088 L 40.2 51.088 Q 40.604 51.088 40.941 51.181 L 40.941 51.181 L 40.941 51.181 Q 41.278 51.275 41.518 51.469 L 41.518 51.469 L 41.518 51.469 Q 41.752 51.662 41.884 51.952 L 41.884 51.952 L 41.884 51.952 Q 42.016 52.242 42.016 52.64 L 42.016 52.64 L 42.016 52.64 Q 42.016 53.045 41.902 53.341 L 41.902 53.341 L 41.902 53.341 Q 41.788 53.637 41.577 53.836 L 41.577 53.836 L 41.577 53.836 Q 41.366 54.035 41.067 54.132 L 41.067 54.132 L 41.067 54.132 Q 40.768 54.228 40.399 54.228 L 40.399 54.228 L 40.399 54.228 Q 40.03 54.228 39.728 54.123 L 39.728 54.123 L 39.728 54.123 Q 39.426 54.017 39.215 53.824 L 39.215 53.824 L 39.215 53.824 Q 39.004 53.631 38.89 53.355 L 38.89 53.355 L 38.89 53.355 Q 38.776 53.08 38.776 52.746 L 38.776 52.746 L 37.692 52.746 L 37.692 52.746 Q 37.692 53.308 37.906 53.748 L 37.906 53.748 L 37.906 53.748 Q 38.12 54.187 38.483 54.492 L 38.483 54.492 L 38.483 54.492 Q 38.846 54.797 39.341 54.955 L 39.341 54.955 L 39.341 54.955 Q 39.836 55.113 40.399 55.113 L 40.399 55.113 L 40.399 55.113 Q 40.973 55.113 41.468 54.946 L 41.468 54.946 L 41.468 54.946 Q 41.963 54.779 42.327 54.457 L 42.327 54.457 L 42.327 54.457 Q 42.69 54.14 42.895 53.678 L 42.895 53.678 L 42.895 53.678 Q 43.1 53.215 43.1 52.617 L 43.1 52.617 L 43.1 52.617 Q 43.1 52.324 43.033 52.025 L 43.033 52.025 L 43.033 52.025 Q 42.965 51.726 42.801 51.457 L 42.801 51.457 L 42.801 51.457 Q 42.631 51.187 42.353 50.971 L 42.353 50.971 L 42.353 50.971 Q 42.075 50.754 41.659 50.619 L 41.659 50.619 L 41.659 50.619 Q 42.004 50.472 42.253 50.253 L 42.253 50.253 L 42.253 50.253 Q 42.502 50.033 42.661 49.781 L 42.661 49.781 L 42.661 49.781 Q 42.819 49.535 42.895 49.271 L 42.895 49.271 L 42.895 49.271 Q 42.971 49.008 42.971 48.762 L 42.971 48.762 L 42.971 48.762 Q 42.971 48.17 42.784 47.719 L 42.784 47.719 L 42.784 47.719 Q 42.596 47.267 42.256 46.963 L 42.256 46.963 L 42.256 46.963 Q 41.917 46.658 41.442 46.503 L 41.442 46.503 L 41.442 46.503 Q 40.967 46.347 40.393 46.347 L 40.393 46.347 L 40.393 46.347 Q 39.801 46.347 39.318 46.532 L 39.318 46.532 L 39.318 46.532 Q 38.835 46.717 38.489 47.033 L 38.489 47.033 L 38.489 47.033 Q 38.143 47.355 37.953 47.786 L 37.953 47.786 L 37.953 47.786 Q 37.762 48.217 37.762 48.703 L 37.762 48.703 L 38.852 48.703 L 38.852 48.703 Q 38.852 48.369 38.963 48.099 L 38.963 48.099 L 38.963 48.099 Q 39.075 47.83 39.28 47.637 L 39.28 47.637 L 39.28 47.637 Q 39.479 47.443 39.763 47.341 L 39.763 47.341 L 39.763 47.341 Q 40.047 47.238 40.393 47.238 L 40.393 47.238 L 40.393 47.238 Q 40.751 47.238 41.029 47.329 L 41.029 47.329 L 41.029 47.329 Q 41.307 47.42 41.495 47.601 L 41.495 47.601 L 41.495 47.601 Q 41.688 47.789 41.788 48.073 L 41.788 48.073 L 41.788 48.073 Q 41.887 48.357 41.887 48.738 L 41.887 48.738 L 41.887 48.738 Q 41.887 49.06 41.776 49.33 L 41.776 49.33 L 41.776 49.33 Q 41.665 49.599 41.454 49.793 L 41.454 49.793 L 41.454 49.793 Q 41.237 49.986 40.923 50.097 L 40.923 50.097 L 40.923 50.097 Q 40.61 50.209 40.2 50.209 L 40.2 50.209 L 40.2 50.209 Z " fill="rgb(144,164,174)"/><path d=" M 320.588 161.626 L 319.815 161.626 L 319.815 162.505 L 320.588 162.505 L 320.588 162.505 Q 320.992 162.505 321.329 162.599 L 321.329 162.599 L 321.329 162.599 Q 321.666 162.693 321.906 162.886 L 321.906 162.886 L 321.906 162.886 Q 322.141 163.079 322.273 163.369 L 322.273 163.369 L 322.273 163.369 Q 322.404 163.659 322.404 164.058 L 322.404 164.058 L 322.404 164.058 Q 322.404 164.462 322.29 164.758 L 322.29 164.758 L 322.29 164.758 Q 322.176 165.054 321.965 165.253 L 321.965 165.253 L 321.965 165.253 Q 321.754 165.452 321.455 165.549 L 321.455 165.549 L 321.455 165.549 Q 321.156 165.646 320.787 165.646 L 320.787 165.646 L 320.787 165.646 Q 320.418 165.646 320.116 165.54 L 320.116 165.54 L 320.116 165.54 Q 319.815 165.435 319.604 165.241 L 319.604 165.241 L 319.604 165.241 Q 319.393 165.048 319.278 164.773 L 319.278 164.773 L 319.278 164.773 Q 319.164 164.497 319.164 164.163 L 319.164 164.163 L 318.08 164.163 L 318.08 164.163 Q 318.08 164.726 318.294 165.165 L 318.294 165.165 L 318.294 165.165 Q 318.508 165.605 318.871 165.909 L 318.871 165.909 L 318.871 165.909 Q 319.234 166.214 319.73 166.372 L 319.73 166.372 L 319.73 166.372 Q 320.225 166.53 320.787 166.53 L 320.787 166.53 L 320.787 166.53 Q 321.361 166.53 321.857 166.363 L 321.857 166.363 L 321.857 166.363 Q 322.352 166.196 322.715 165.874 L 322.715 165.874 L 322.715 165.874 Q 323.078 165.558 323.283 165.095 L 323.283 165.095 L 323.283 165.095 Q 323.488 164.632 323.488 164.034 L 323.488 164.034 L 323.488 164.034 Q 323.488 163.741 323.421 163.443 L 323.421 163.443 L 323.421 163.443 Q 323.354 163.144 323.19 162.874 L 323.19 162.874 L 323.19 162.874 Q 323.02 162.605 322.741 162.388 L 322.741 162.388 L 322.741 162.388 Q 322.463 162.171 322.047 162.036 L 322.047 162.036 L 322.047 162.036 Q 322.393 161.89 322.642 161.67 L 322.642 161.67 L 322.642 161.67 Q 322.891 161.45 323.049 161.198 L 323.049 161.198 L 323.049 161.198 Q 323.207 160.952 323.283 160.689 L 323.283 160.689 L 323.283 160.689 Q 323.359 160.425 323.359 160.179 L 323.359 160.179 L 323.359 160.179 Q 323.359 159.587 323.172 159.136 L 323.172 159.136 L 323.172 159.136 Q 322.984 158.685 322.645 158.38 L 322.645 158.38 L 322.645 158.38 Q 322.305 158.075 321.83 157.92 L 321.83 157.92 L 321.83 157.92 Q 321.356 157.765 320.781 157.765 L 320.781 157.765 L 320.781 157.765 Q 320.19 157.765 319.706 157.949 L 319.706 157.949 L 319.706 157.949 Q 319.223 158.134 318.877 158.45 L 318.877 158.45 L 318.877 158.45 Q 318.531 158.773 318.341 159.203 L 318.341 159.203 L 318.341 159.203 Q 318.15 159.634 318.15 160.12 L 318.15 160.12 L 319.24 160.12 L 319.24 160.12 Q 319.24 159.786 319.352 159.517 L 319.352 159.517 L 319.352 159.517 Q 319.463 159.247 319.668 159.054 L 319.668 159.054 L 319.668 159.054 Q 319.867 158.861 320.151 158.758 L 320.151 158.758 L 320.151 158.758 Q 320.436 158.655 320.781 158.655 L 320.781 158.655 L 320.781 158.655 Q 321.139 158.655 321.417 158.746 L 321.417 158.746 L 321.417 158.746 Q 321.695 158.837 321.883 159.019 L 321.883 159.019 L 321.883 159.019 Q 322.076 159.206 322.176 159.49 L 322.176 159.49 L 322.176 159.49 Q 322.275 159.775 322.275 160.155 L 322.275 160.155 L 322.275 160.155 Q 322.275 160.478 322.164 160.747 L 322.164 160.747 L 322.164 160.747 Q 322.053 161.017 321.842 161.21 L 321.842 161.21 L 321.842 161.21 Q 321.625 161.403 321.312 161.515 L 321.312 161.515 L 321.312 161.515 Q 320.998 161.626 320.588 161.626 L 320.588 161.626 L 320.588 161.626 Z " fill="rgb(144,164,174)"/><path d=" M 148.133 61.269 L 146.943 61.269 L 146.943 55.603 L 145.789 55.603 L 141.969 61.515 L 141.969 62.154 L 145.859 62.154 L 145.859 64.135 L 146.943 64.135 L 146.943 62.154 L 148.133 62.154 L 148.133 61.269 L 148.133 61.269 Z  M 145.859 61.269 L 143.17 61.269 L 145.684 57.373 L 145.859 57.045 L 145.859 61.269 L 145.859 61.269 Z " fill="rgb(144,164,174)"/><path d=" M 222.833 61.269 L 221.643 61.269 L 221.643 55.603 L 220.489 55.603 L 216.669 61.515 L 216.669 62.154 L 220.559 62.154 L 220.559 64.135 L 221.643 64.135 L 221.643 62.154 L 222.833 62.154 L 222.833 61.269 L 222.833 61.269 Z  M 220.559 61.269 L 217.87 61.269 L 220.384 57.373 L 220.559 57.045 L 220.559 61.269 L 220.559 61.269 Z " fill="rgb(144,164,174)"/><path d=" M 148.133 171.461 L 146.943 171.461 L 146.943 165.795 L 145.789 165.795 L 141.969 171.707 L 141.969 172.346 L 145.859 172.346 L 145.859 174.326 L 146.943 174.326 L 146.943 172.346 L 148.133 172.346 L 148.133 171.461 L 148.133 171.461 Z  M 145.859 171.461 L 143.17 171.461 L 145.684 167.565 L 145.859 167.237 L 145.859 171.461 L 145.859 171.461 Z " fill="rgb(144,164,174)"/><path d=" M 222.833 171.461 L 221.643 171.461 L 221.643 165.795 L 220.489 165.795 L 216.669 171.707 L 216.669 172.346 L 220.559 172.346 L 220.559 174.326 L 221.643 174.326 L 221.643 172.346 L 222.833 172.346 L 222.833 171.461 L 222.833 171.461 Z  M 220.559 171.461 L 217.87 171.461 L 220.384 167.565 L 220.559 167.237 L 220.559 171.461 L 220.559 171.461 Z " fill="rgb(144,164,174)"/><path d=" M 291.713 99.944 L 297.303 99.944 L 297.303 99.059 L 293.02 99.059 L 295.311 96.575 L 295.311 96.575 Q 295.633 96.223 295.923 95.869 L 295.923 95.869 L 295.923 95.869 Q 296.213 95.514 296.436 95.151 L 296.436 95.151 L 296.436 95.151 Q 296.653 94.788 296.782 94.416 L 296.782 94.416 L 296.782 94.416 Q 296.911 94.044 296.911 93.663 L 296.911 93.663 L 296.911 93.663 Q 296.911 93.153 296.732 92.72 L 296.732 92.72 L 296.732 92.72 Q 296.553 92.286 296.219 91.97 L 296.219 91.97 L 296.219 91.97 Q 295.885 91.653 295.402 91.474 L 295.402 91.474 L 295.402 91.474 Q 294.918 91.296 294.315 91.296 L 294.315 91.296 L 294.315 91.296 Q 293.659 91.296 293.146 91.507 L 293.146 91.507 L 293.146 91.507 Q 292.633 91.718 292.282 92.075 L 292.282 92.075 L 292.282 92.075 Q 291.924 92.432 291.737 92.91 L 291.737 92.91 L 291.737 92.91 Q 291.549 93.388 291.549 93.927 L 291.549 93.927 L 292.639 93.927 L 292.639 93.927 Q 292.639 93.528 292.742 93.206 L 292.742 93.206 L 292.742 93.206 Q 292.844 92.884 293.055 92.655 L 293.055 92.655 L 293.055 92.655 Q 293.26 92.432 293.574 92.309 L 293.574 92.309 L 293.574 92.309 Q 293.887 92.186 294.315 92.186 L 294.315 92.186 L 294.315 92.186 Q 294.666 92.186 294.945 92.306 L 294.945 92.306 L 294.945 92.306 Q 295.223 92.427 295.422 92.632 L 295.422 92.632 L 295.422 92.632 Q 295.616 92.837 295.718 93.115 L 295.718 93.115 L 295.718 93.115 Q 295.821 93.393 295.821 93.71 L 295.821 93.71 L 295.821 93.71 Q 295.821 93.968 295.756 94.211 L 295.756 94.211 L 295.756 94.211 Q 295.692 94.454 295.539 94.723 L 295.539 94.723 L 295.539 94.723 Q 295.387 94.999 295.135 95.321 L 295.135 95.321 L 295.135 95.321 Q 294.883 95.643 294.508 96.059 L 294.508 96.059 L 291.713 99.165 L 291.713 99.944 L 291.713 99.944 Z " fill="rgb(144,164,174)"/><path d=" M 219.681 99.944 L 220.765 99.944 L 220.765 91.413 L 220.677 91.413 L 217.448 92.655 L 217.448 93.645 L 219.681 92.796 L 219.681 99.944 L 219.681 99.944 Z " fill="rgb(144,164,174)"/></svg>